<svg width="94" height="94" viewBox="0 0 94 94" fill="none" xmlns="http://www.w3.org/2000/svg">
    <g filter="url(#filter0_d_24_186)">
        <rect x="19" y="19" width="56" height="56" rx="28" fill="#674DB2" fill-opacity="1.0"/>
        <path d="M54.5 42.125H51.875V40.25C51.875 38.9571 51.3614 37.7171 50.4471 36.8029C49.5329 35.8886 48.2929 35.375 47 35.375C45.7071 35.375 44.4671 35.8886 43.5529 36.8029C42.6386 37.7171 42.125 38.9571 42.125 40.25V42.125H39.5C39.0027 42.125 38.5258 42.3225 38.1742 42.6742C37.8225 43.0258 37.625 43.5027 37.625 44V54.5C37.625 54.9973 37.8225 55.4742 38.1742 55.8258C38.5258 56.1775 39.0027 56.375 39.5 56.375H54.5C54.9973 56.375 55.4742 56.1775 55.8258 55.8258C56.1775 55.4742 56.375 54.9973 56.375 54.5V44C56.375 43.5027 56.1775 43.0258 55.8258 42.6742C55.4742 42.3225 54.9973 42.125 54.5 42.125ZM44.375 40.25C44.375 39.5538 44.6516 38.8861 45.1438 38.3938C45.6361 37.9016 46.3038 37.625 47 37.625C47.6962 37.625 48.3639 37.9016 48.8562 38.3938C49.3484 38.8861 49.625 39.5538 49.625 40.25V42.125H44.375V40.25ZM54.125 54.125H39.875V44.375H54.125V54.125ZM47 45.5C46.304 45.5003 45.6297 45.7425 45.0927 46.1853C44.5557 46.628 44.1893 47.2437 44.0564 47.9269C43.9234 48.6101 44.0321 49.3183 44.3639 49.9301C44.6957 50.5419 45.2299 51.0194 45.875 51.2806V51.875C45.875 52.1734 45.9935 52.4595 46.2045 52.6705C46.4155 52.8815 46.7016 53 47 53C47.2984 53 47.5845 52.8815 47.7955 52.6705C48.0065 52.4595 48.125 52.1734 48.125 51.875V51.2806C48.7701 51.0194 49.3043 50.5419 49.6361 49.9301C49.9679 49.3183 50.0766 48.6101 49.9436 47.9269C49.8107 47.2437 49.4443 46.628 48.9073 46.1853C48.3703 45.7425 47.696 45.5003 47 45.5ZM47 47.75C47.1483 47.75 47.2933 47.794 47.4167 47.8764C47.54 47.9588 47.6361 48.0759 47.6929 48.213C47.7497 48.35 47.7645 48.5008 47.7356 48.6463C47.7066 48.7918 47.6352 48.9254 47.5303 49.0303C47.4254 49.1352 47.2918 49.2066 47.1463 49.2356C47.0008 49.2645 46.85 49.2497 46.713 49.1929C46.5759 49.1361 46.4588 49.04 46.3764 48.9167C46.294 48.7933 46.25 48.6483 46.25 48.5C46.25 48.3011 46.329 48.1103 46.4697 47.9697C46.6103 47.829 46.8011 47.75 47 47.75Z" fill="white"/>
    </g>
    <defs>
        <filter id="filter0_d_24_186" x="0.9" y="0.9" width="92.2" height="92.2" filterUnits="userSpaceOnUse" color-interpolation-filters="sRGB">
            <feFlood flood-opacity="0" result="BackgroundImageFix"/>
            <feColorMatrix in="SourceAlpha" type="matrix" values="0 0 0 0 0 0 0 0 0 0 0 0 0 0 0 0 0 0 127 0" result="hardAlpha"/>
            <feOffset/>
            <feGaussianBlur stdDeviation="9.05"/>
            <feColorMatrix type="matrix" values="0 0 0 0 0.44 0 0 0 0 0 0 0 0 0 1 0 0 0 0.43 0"/>
            <feBlend mode="normal" in2="BackgroundImageFix" result="effect1_dropShadow_24_186"/>
            <feBlend mode="normal" in="SourceGraphic" in2="effect1_dropShadow_24_186" result="shape"/>
        </filter>
    </defs>
</svg>
