<svg width="84" height="84" viewBox="0 0 84 84" fill="none" xmlns="http://www.w3.org/2000/svg">
    <g filter="url(#filter0_bd_24_185)">
        <rect x="14" y="10" width="56" height="56" rx="28" fill="#303030" fill-opacity="0.5"/>
        <path d="M49.5 33.125H46.875V31.25C46.875 29.9571 46.3614 28.7171 45.4471 27.8029C44.5329 26.8886 43.2929 26.375 42 26.375C40.7071 26.375 39.4671 26.8886 38.5529 27.8029C37.6386 28.7171 37.125 29.9571 37.125 31.25V33.125H34.5C34.0027 33.125 33.5258 33.3225 33.1742 33.6742C32.8225 34.0258 32.625 34.5027 32.625 35V45.5C32.625 45.9973 32.8225 46.4742 33.1742 46.8258C33.5258 47.1775 34.0027 47.375 34.5 47.375H49.5C49.9973 47.375 50.4742 47.1775 50.8258 46.8258C51.1775 46.4742 51.375 45.9973 51.375 45.5V35C51.375 34.5027 51.1775 34.0258 50.8258 33.6742C50.4742 33.3225 49.9973 33.125 49.5 33.125ZM39.375 31.25C39.375 30.5538 39.6516 29.8861 40.1438 29.3938C40.6361 28.9016 41.3038 28.625 42 28.625C42.6962 28.625 43.3639 28.9016 43.8562 29.3938C44.3484 29.8861 44.625 30.5538 44.625 31.25V33.125H39.375V31.25ZM49.125 45.125H34.875V35.375H49.125V45.125ZM42 36.5C41.304 36.5003 40.6297 36.7425 40.0927 37.1853C39.5557 37.628 39.1893 38.2437 39.0564 38.9269C38.9234 39.6101 39.0321 40.3183 39.3639 40.9301C39.6957 41.5419 40.2299 42.0194 40.875 42.2806V42.875C40.875 43.1734 40.9935 43.4595 41.2045 43.6705C41.4155 43.8815 41.7016 44 42 44C42.2984 44 42.5845 43.8815 42.7955 43.6705C43.0065 43.4595 43.125 43.1734 43.125 42.875V42.2806C43.7701 42.0194 44.3043 41.5419 44.6361 40.9301C44.9679 40.3183 45.0766 39.6101 44.9436 38.9269C44.8107 38.2437 44.4443 37.628 43.9073 37.1853C43.3703 36.7425 42.696 36.5003 42 36.5ZM42 38.75C42.1483 38.75 42.2933 38.794 42.4167 38.8764C42.54 38.9588 42.6361 39.0759 42.6929 39.213C42.7497 39.35 42.7645 39.5008 42.7356 39.6463C42.7066 39.7918 42.6352 39.9254 42.5303 40.0303C42.4254 40.1352 42.2918 40.2066 42.1463 40.2356C42.0008 40.2645 41.85 40.2497 41.713 40.1929C41.5759 40.1361 41.4588 40.04 41.3764 39.9167C41.294 39.7933 41.25 39.6483 41.25 39.5C41.25 39.3011 41.329 39.1103 41.4697 38.9697C41.6103 38.829 41.8011 38.75 42 38.75Z" fill="white"/>
    </g>
    <defs>
        <filter id="filter0_bd_24_185" x="0" y="0" width="84" height="84" filterUnits="userSpaceOnUse" color-interpolation-filters="sRGB">
            <feFlood flood-opacity="0" result="BackgroundImageFix"/>
            <feGaussianBlur in="BackgroundImageFix" stdDeviation="5"/>
            <feComposite in2="SourceAlpha" operator="in" result="effect1_backgroundBlur_24_185"/>
            <feColorMatrix in="SourceAlpha" type="matrix" values="0 0 0 0 0 0 0 0 0 0 0 0 0 0 0 0 0 0 127 0" result="hardAlpha"/>
            <feOffset dy="4"/>
            <feGaussianBlur stdDeviation="7"/>
            <feColorMatrix type="matrix" values="0 0 0 0 0 0 0 0 0 0 0 0 0 0 0 0 0 0 0.12 0"/>
            <feBlend mode="normal" in2="effect1_backgroundBlur_24_185" result="effect2_dropShadow_24_185"/>
            <feBlend mode="normal" in="SourceGraphic" in2="effect2_dropShadow_24_185" result="shape"/>
        </filter>
    </defs>
</svg>
