<svg width="44" height="44" viewBox="0 0 44 44" fill="none" xmlns="http://www.w3.org/2000/svg">
    <g filter="url(#filter0_d_80_322)">
        <rect x="8" y="4" width="28" height="28" rx="14" fill="white" shape-rendering="crispEdges"/>
        <path d="M29.5906 14.3319C29.4672 14.2691 29.3289 14.2417 29.1909 14.2528C29.0529 14.2638 28.9206 14.3128 28.8088 14.3944L27.25 15.5269V14.5C27.25 14.1685 27.1183 13.8505 26.8839 13.6161C26.6495 13.3817 26.3315 13.25 26 13.25H16C15.6685 13.25 15.3505 13.3817 15.1161 13.6161C14.8817 13.8505 14.75 14.1685 14.75 14.5V21.5C14.75 21.8315 14.8817 22.1495 15.1161 22.3839C15.3505 22.6183 15.6685 22.75 16 22.75H26C26.3315 22.75 26.6495 22.6183 26.8839 22.3839C27.1183 22.1495 27.25 21.8315 27.25 21.5V20.4731L28.8088 21.6069C28.9207 21.6883 29.0529 21.7372 29.1909 21.7481C29.3288 21.759 29.4671 21.7315 29.5904 21.6687C29.7138 21.6059 29.8173 21.5101 29.8896 21.3921C29.9619 21.2741 30.0001 21.1384 30 21V15C30 14.8617 29.9617 14.7261 29.8895 14.6082C29.8173 14.4903 29.7138 14.3947 29.5906 14.3319ZM25.75 21.25H16.25V14.75H25.75V21.25ZM28.5 19.5269L27.25 18.6181V17.3819L28.5 16.4731V19.5269Z" fill="#5C5C5C"/>
    </g>
    <defs>
        <filter id="filter0_d_80_322" x="0" y="0" width="44" height="44" filterUnits="userSpaceOnUse" color-interpolation-filters="sRGB">
            <feFlood flood-opacity="0" result="BackgroundImageFix"/>
            <feColorMatrix in="SourceAlpha" type="matrix" values="0 0 0 0 0 0 0 0 0 0 0 0 0 0 0 0 0 0 127 0" result="hardAlpha"/>
            <feOffset dy="4"/>
            <feGaussianBlur stdDeviation="4"/>
            <feComposite in2="hardAlpha" operator="out"/>
            <feColorMatrix type="matrix" values="0 0 0 0 0.121569 0 0 0 0 0.290196 0 0 0 0 0.443137 0 0 0 0.04 0"/>
            <feBlend mode="normal" in2="BackgroundImageFix" result="effect1_dropShadow_80_322"/>
            <feBlend mode="normal" in="SourceGraphic" in2="effect1_dropShadow_80_322" result="shape"/>
        </filter>
    </defs>
</svg>
