<svg width="56" height="56" viewBox="0 0 56 56" fill="none" xmlns="http://www.w3.org/2000/svg">
    <rect width="56" height="56" rx="28" fill="#674DB2"/>
    <path d="M32.875 30.1272V21.25C32.875 19.9571 32.3614 18.7171 31.4471 17.8029C30.5329 16.8886 29.2929 16.375 28 16.375C26.7071 16.375 25.4671 16.8886 24.5529 17.8029C23.6386 18.7171 23.125 19.9571 23.125 21.25V30.1272C22.4817 31.0238 22.0981 32.0804 22.0165 33.1809C21.9348 34.2814 22.1582 35.3831 22.6621 36.3648C23.166 37.3465 23.9309 38.1703 24.8726 38.7455C25.8144 39.3206 26.8965 39.625 28 39.625C29.1035 39.625 30.1856 39.3206 31.1274 38.7455C32.0691 38.1703 32.834 37.3465 33.3379 36.3648C33.8418 35.3831 34.0652 34.2814 33.9835 33.1809C33.9019 32.0804 33.5183 31.0238 32.875 30.1272ZM28 37.375C27.2895 37.375 26.5936 37.1732 25.9934 36.793C25.3931 36.4128 24.9132 35.87 24.6096 35.2276C24.3059 34.5852 24.191 33.8698 24.2782 33.1647C24.3655 32.4596 24.6512 31.7937 25.1022 31.2447C25.2781 31.0406 25.3749 30.7801 25.375 30.5106V21.25C25.375 20.5538 25.6516 19.8861 26.1438 19.3938C26.6361 18.9016 27.3038 18.625 28 18.625C28.6962 18.625 29.3639 18.9016 29.8562 19.3938C30.3484 19.8861 30.625 20.5538 30.625 21.25V30.5097C30.6248 30.7727 30.7166 31.0274 30.8847 31.2297C31.3395 31.7776 31.629 32.4437 31.7192 33.15C31.8094 33.8564 31.6966 34.5739 31.394 35.2185C31.0914 35.8631 30.6115 36.4082 30.0105 36.7901C29.4095 37.172 28.7121 37.3749 28 37.375ZM30.25 33.625C30.2501 34.02 30.1462 34.408 29.9487 34.7501C29.7513 35.0922 29.4673 35.3763 29.1253 35.5738C28.7833 35.7714 28.3952 35.8754 28.0003 35.8754C27.6053 35.8755 27.2173 35.7716 26.8752 35.5741C26.5331 35.3766 26.249 35.0926 26.0515 34.7506C25.854 34.4085 25.75 34.0205 25.75 33.6255C25.75 33.2306 25.8539 32.8425 26.0514 32.5005C26.2489 32.1584 26.5329 31.8744 26.875 31.6769V24.625C26.875 24.3266 26.9935 24.0405 27.2045 23.8295C27.4155 23.6185 27.7016 23.5 28 23.5C28.2984 23.5 28.5845 23.6185 28.7955 23.8295C29.0065 24.0405 29.125 24.3266 29.125 24.625V31.6769C29.467 31.8743 29.751 32.1583 29.9485 32.5002C30.1459 32.8422 30.2499 33.2301 30.25 33.625Z" fill="white"/>
</svg>
