<svg width="44" height="44" viewBox="0 0 44 44" fill="none" xmlns="http://www.w3.org/2000/svg">
    <g filter="url(#filter0_d_80_201)">
        <rect x="8" y="4" width="28" height="28" rx="14" fill="white" shape-rendering="crispEdges"/>
        <path d="M25.25 19.4181V13.5C25.25 12.638 24.9076 11.8114 24.2981 11.2019C23.6886 10.5924 22.862 10.25 22 10.25C21.138 10.25 20.3114 10.5924 19.7019 11.2019C19.0924 11.8114 18.75 12.638 18.75 13.5V19.4181C18.3211 20.0159 18.0654 20.7203 18.011 21.4539C17.9565 22.1876 18.1055 22.922 18.4414 23.5765C18.7773 24.231 19.2873 24.7802 19.9151 25.1636C20.5429 25.5471 21.2643 25.75 22 25.75C22.7357 25.75 23.4571 25.5471 24.0849 25.1636C24.7128 24.7802 25.2227 24.231 25.5586 23.5765C25.8945 22.922 26.0435 22.1876 25.989 21.4539C25.9346 20.7203 25.6789 20.0159 25.25 19.4181ZM22 24.25C21.5263 24.25 21.0624 24.1155 20.6622 23.862C20.2621 23.6086 19.9421 23.2466 19.7397 22.8184C19.5373 22.3902 19.4607 21.9132 19.5188 21.4431C19.577 20.973 19.7675 20.5291 20.0681 20.1631C20.1854 20.027 20.2499 19.8534 20.25 19.6737V13.5C20.25 13.0359 20.4344 12.5908 20.7626 12.2626C21.0908 11.9344 21.5359 11.75 22 11.75C22.4641 11.75 22.9093 11.9344 23.2374 12.2626C23.5656 12.5908 23.75 13.0359 23.75 13.5V19.6731C23.7498 19.8484 23.8111 20.0183 23.9231 20.1531C24.2264 20.5184 24.4193 20.9625 24.4795 21.4334C24.5396 21.9043 24.4644 22.3826 24.2627 22.8123C24.0609 23.2421 23.741 23.6055 23.3403 23.8601C22.9396 24.1147 22.4747 24.2499 22 24.25ZM23.5 21.75C23.5001 22.0133 23.4308 22.272 23.2992 22.5001C23.1675 22.7281 22.9782 22.9175 22.7502 23.0492C22.5222 23.1809 22.2635 23.2503 22.0002 23.2503C21.7369 23.2503 21.4782 23.181 21.2501 23.0494C21.0221 22.9178 20.8327 22.7284 20.701 22.5004C20.5693 22.2724 20.5 22.0137 20.5 21.7504C20.5 21.487 20.5693 21.2284 20.7009 21.0003C20.8326 20.7723 21.022 20.5829 21.25 20.4513V15.75C21.25 15.5511 21.329 15.3603 21.4697 15.2197C21.6103 15.079 21.8011 15 22 15C22.1989 15 22.3897 15.079 22.5303 15.2197C22.671 15.3603 22.75 15.5511 22.75 15.75V20.4513C22.978 20.5829 23.1673 20.7722 23.299 21.0002C23.4306 21.2281 23.5 21.4867 23.5 21.75Z" fill="#C2C2C2"/>
    </g>
    <defs>
        <filter id="filter0_d_80_201" x="0" y="0" width="44" height="44" filterUnits="userSpaceOnUse" color-interpolation-filters="sRGB">
            <feFlood flood-opacity="0" result="BackgroundImageFix"/>
            <feColorMatrix in="SourceAlpha" type="matrix" values="0 0 0 0 0 0 0 0 0 0 0 0 0 0 0 0 0 0 127 0" result="hardAlpha"/>
            <feOffset dy="4"/>
            <feGaussianBlur stdDeviation="4"/>
            <feComposite in2="hardAlpha" operator="out"/>
            <feColorMatrix type="matrix" values="0 0 0 0 0.121569 0 0 0 0 0.290196 0 0 0 0 0.443137 0 0 0 0.04 0"/>
            <feBlend mode="normal" in2="BackgroundImageFix" result="effect1_dropShadow_80_201"/>
            <feBlend mode="normal" in="SourceGraphic" in2="effect1_dropShadow_80_201" result="shape"/>
        </filter>
    </defs>
</svg>
