<svg width="92" height="22" viewBox="0 0 92 22" fill="none" xmlns="http://www.w3.org/2000/svg">
    <path
        d="M3.7377 16.0909L3.06592 16.5325L3.63715 17.0957L3.63739 17.0959L3.63779 17.0963L3.63806 17.0966L3.63837 17.0969L3.63883 17.0974L3.65055 17.1094C3.66195 17.1212 3.68034 17.1405 3.70472 17.1671C3.75351 17.2204 3.82611 17.3026 3.91464 17.4117C4.09203 17.6303 4.33141 17.9546 4.57125 18.3684C4.97546 19.0659 5.37166 20.0013 5.48822 21.1057H2.66696V3.96764H10.6104C10.5745 4.17173 10.5287 4.41414 10.4711 4.68866C10.2812 5.59358 9.96454 6.84231 9.4585 8.21442C8.44066 10.9743 6.68659 14.1525 3.7377 16.0909ZM14.2013 3.96764H22.1447V21.1057H19.3235C19.44 20.0013 19.8362 19.0659 20.2405 18.3684C20.4803 17.9546 20.7197 17.6303 20.8971 17.4117C20.9856 17.3026 21.0582 17.2204 21.107 17.1671C21.1314 17.1405 21.1497 17.1212 21.1611 17.1094L21.1729 17.0974L21.1733 17.0969L21.1736 17.0966L21.1739 17.0963L21.1743 17.0959L21.1746 17.0957L21.7458 16.5325L21.074 16.0909C18.1251 14.1525 16.371 10.9743 15.3532 8.21442C14.8472 6.84231 14.5305 5.59358 14.3406 4.68866C14.283 4.41414 14.2372 4.17173 14.2013 3.96764Z"
        stroke="#404040" stroke-width="1.3" />
    <path
        d="M36.1651 16V4.72H38.1811V14.288H42.4851V4.72H44.5011V14.288H48.8051V4.72H50.8211V16H36.1651ZM54.8421 16V9.744H52.1701V8.176H59.5301V9.744H56.8421V16H54.8421ZM64.2625 16.16C63.4518 16.16 62.7478 15.9947 62.1505 15.664C61.5531 15.3333 61.0891 14.864 60.7585 14.256C60.4278 13.6373 60.2625 12.912 60.2625 12.08C60.2625 11.248 60.4278 10.528 60.7585 9.92C61.0891 9.312 61.5531 8.84267 62.1505 8.512C62.7478 8.18133 63.4518 8.016 64.2625 8.016C65.0731 8.016 65.7771 8.18133 66.3745 8.512C66.9718 8.84267 67.4358 9.312 67.7665 9.92C68.0971 10.528 68.2625 11.248 68.2625 12.08C68.2625 12.912 68.0971 13.6373 67.7665 14.256C67.4358 14.864 66.9718 15.3333 66.3745 15.664C65.7771 15.9947 65.0731 16.16 64.2625 16.16ZM64.2625 14.64C64.8598 14.64 65.3398 14.4267 65.7025 14C66.0651 13.5627 66.2465 12.9227 66.2465 12.08C66.2465 11.2267 66.0651 10.592 65.7025 10.176C65.3398 9.74933 64.8598 9.536 64.2625 9.536C63.6651 9.536 63.1851 9.74933 62.8225 10.176C62.4598 10.592 62.2785 11.2267 62.2785 12.08C62.2785 12.9227 62.4598 13.5627 62.8225 14C63.1851 14.4267 63.6651 14.64 64.2625 14.64ZM70.132 18.88V8.176H72.084V9.424C72.308 8.99733 72.644 8.656 73.092 8.4C73.5506 8.144 74.068 8.016 74.644 8.016C75.3266 8.016 75.924 8.18133 76.436 8.512C76.9586 8.84267 77.364 9.312 77.652 9.92C77.94 10.5173 78.084 11.2373 78.084 12.08C78.084 12.912 77.94 13.6373 77.652 14.256C77.364 14.864 76.964 15.3333 76.452 15.664C75.94 15.9947 75.3373 16.16 74.644 16.16C74.0893 16.16 73.588 16.0427 73.14 15.808C72.7026 15.5627 72.3666 15.2373 72.132 14.832V18.88H70.132ZM74.084 14.64C74.6813 14.64 75.1613 14.4267 75.524 14C75.8866 13.5627 76.068 12.9227 76.068 12.08C76.068 11.2267 75.8866 10.592 75.524 10.176C75.1613 9.74933 74.6813 9.536 74.084 9.536C73.4866 9.536 73.0066 9.74933 72.644 10.176C72.2813 10.592 72.1 11.2267 72.1 12.08C72.1 12.9227 72.2813 13.5627 72.644 14C73.0066 14.4267 73.4866 14.64 74.084 14.64ZM79.9441 16V8.176H81.9441V10.768H84.0081C85.0428 10.768 85.8214 10.9867 86.3441 11.424C86.8774 11.8613 87.1441 12.5013 87.1441 13.344C87.1441 14.144 86.8614 14.7893 86.2961 15.28C85.7414 15.76 84.9788 16 84.0081 16H79.9441ZM88.0881 16V8.176H90.0881V16H88.0881ZM81.9441 14.688H83.7041C84.2054 14.688 84.5948 14.5813 84.8721 14.368C85.1494 14.144 85.2881 13.808 85.2881 13.36C85.2881 12.9227 85.1494 12.6027 84.8721 12.4C84.5948 12.1867 84.2054 12.08 83.7041 12.08H81.9441V14.688Z"
        fill="#404040" />
</svg>
