<svg width="94" height="94" viewBox="0 0 94 94" fill="none" xmlns="http://www.w3.org/2000/svg">
    <g filter="url(#filter0_d_24_188)">
        <rect x="19" y="19" width="56" height="56" rx="28" fill="#674DB2"/>
        <path d="M38.6004 43C38.6004 42.4477 39.0481 42 39.6004 42H40.0004C40.5527 42 41.0004 42.4477 41.0004 43V54C41.0004 54.5523 40.5527 55 40.0004 55H39.6004C39.0481 55 38.6004 54.5523 38.6004 54V43Z" fill="white"/>
        <path d="M42.2004 43C42.2004 42.4477 42.6481 42 43.2004 42H43.6004C44.1527 42 44.6004 42.4477 44.6004 43V54C44.6004 54.5523 44.1527 55 43.6004 55H43.2004C42.6481 55 42.2004 54.5523 42.2004 54V43Z" fill="white"/>
        <path d="M53.0004 43C53.0004 42.4477 53.4481 42 54.0004 42H54.4004C54.9527 42 55.4004 42.4477 55.4004 43V54C55.4004 54.5523 54.9527 55 54.4004 55H54.0004C53.4481 55 53.0004 54.5523 53.0004 54V43Z" fill="white"/>
        <path d="M49.4004 43C49.4004 42.4477 49.8481 42 50.4004 42H50.8004C51.3527 42 51.8004 42.4477 51.8004 43V54C51.8004 54.5523 51.3527 55 50.8004 55H50.4004C49.8481 55 49.4004 54.5523 49.4004 54V43Z" fill="white"/>
        <path d="M55.6004 39C56.1527 39 56.6004 39.4477 56.6004 40C56.6004 40.5523 56.1527 41 55.6004 41L38.4004 41C37.8481 41 37.4004 40.5523 37.4004 40C37.4004 39.4477 37.8481 39 38.4004 39L55.6004 39Z" fill="white"/>
    </g>
    <defs>
        <filter id="filter0_d_24_188" x="0.9" y="0.9" width="92.2" height="92.2" filterUnits="userSpaceOnUse" color-interpolation-filters="sRGB">
            <feFlood flood-opacity="0" result="BackgroundImageFix"/>
            <feColorMatrix in="SourceAlpha" type="matrix" values="0 0 0 0 0 0 0 0 0 0 0 0 0 0 0 0 0 0 127 0" result="hardAlpha"/>
            <feOffset/>
            <feGaussianBlur stdDeviation="9.05"/>
            <feColorMatrix type="matrix" values="0 0 0 0 0.44 0 0 0 0 0 0 0 0 0 1 0 0 0 0.43 0"/>
            <feBlend mode="normal" in2="BackgroundImageFix" result="effect1_dropShadow_24_188"/>
            <feBlend mode="normal" in="SourceGraphic" in2="effect1_dropShadow_24_188" result="shape"/>
        </filter>
    </defs>
</svg>
