<svg width="44" height="44" viewBox="0 0 44 44" fill="none" xmlns="http://www.w3.org/2000/svg">
    <g filter="url(#filter0_d_80_298)">
        <rect x="8" y="4" width="28" height="28" rx="14" fill="white" shape-rendering="crispEdges"/>
        <path d="M27.7301 17.3287C27.702 17.2086 27.6446 17.0973 27.5632 17.0046C27.4818 16.912 27.3787 16.8408 27.2632 16.7975L23.8607 15.5219L24.7357 11.1469C24.7677 10.9869 24.7466 10.8208 24.6757 10.6738C24.6048 10.5269 24.4879 10.4071 24.3427 10.3326C24.1975 10.2581 24.032 10.233 23.8712 10.261C23.7105 10.2891 23.5633 10.3688 23.452 10.4881L16.452 17.9881C16.3677 18.0783 16.3071 18.1878 16.2753 18.307C16.2435 18.4262 16.2417 18.5514 16.2698 18.6715C16.298 18.7916 16.3554 18.9029 16.4369 18.9955C16.5184 19.0881 16.6214 19.1592 16.737 19.2025L20.1395 20.4781L19.2645 24.8531C19.2325 25.0131 19.2535 25.1792 19.3245 25.3262C19.3954 25.4731 19.5123 25.5929 19.6575 25.6674C19.8027 25.7419 19.9682 25.767 20.1289 25.739C20.2897 25.7109 20.4369 25.6312 20.5482 25.5119L27.5482 18.0119C27.6323 17.9217 27.693 17.8122 27.7247 17.6931C27.7564 17.5739 27.7583 17.4488 27.7301 17.3287ZM21.2532 22.5581L21.7357 20.1469C21.7706 19.9722 21.7422 19.7909 21.6557 19.6353C21.5691 19.4797 21.43 19.3599 21.2632 19.2975L18.3126 18.1919L22.7457 13.4419L22.2632 15.8531C22.2283 16.0277 22.2567 16.2091 22.3433 16.3647C22.4298 16.5203 22.5689 16.6401 22.7357 16.7025L25.6876 17.8081L21.2532 22.5581Z" fill="#5C5C5C"/>
    </g>
    <defs>
        <filter id="filter0_d_80_298" x="0" y="0" width="44" height="44" filterUnits="userSpaceOnUse" color-interpolation-filters="sRGB">
            <feFlood flood-opacity="0" result="BackgroundImageFix"/>
            <feColorMatrix in="SourceAlpha" type="matrix" values="0 0 0 0 0 0 0 0 0 0 0 0 0 0 0 0 0 0 127 0" result="hardAlpha"/>
            <feOffset dy="4"/>
            <feGaussianBlur stdDeviation="4"/>
            <feComposite in2="hardAlpha" operator="out"/>
            <feColorMatrix type="matrix" values="0 0 0 0 0.121569 0 0 0 0 0.290196 0 0 0 0 0.443137 0 0 0 0.04 0"/>
            <feBlend mode="normal" in2="BackgroundImageFix" result="effect1_dropShadow_80_298"/>
            <feBlend mode="normal" in="SourceGraphic" in2="effect1_dropShadow_80_298" result="shape"/>
        </filter>
    </defs>
</svg>
