<svg width="94" height="94" viewBox="0 0 94 94" fill="none" xmlns="http://www.w3.org/2000/svg">
    <g filter="url(#filter0_bd_24_183)">
        <rect x="14" y="10" width="56" height="56" rx="28" fill="#674DB2" fill-opacity="1.0"/>
        <path d="M46.8751 47.75C46.8751 48.0484 46.7566 48.3345 46.5456 48.5455C46.3346 48.7565 46.0485 48.875 45.7501 48.875H38.2501C37.9518 48.875 37.6656 48.7565 37.4546 48.5455C37.2437 48.3345 37.1251 48.0484 37.1251 47.75C37.1251 47.4516 37.2437 47.1655 37.4546 46.9545C37.6656 46.7435 37.9518 46.625 38.2501 46.625H45.7501C46.0485 46.625 46.3346 46.7435 46.5456 46.9545C46.7566 47.1655 46.8751 47.4516 46.8751 47.75ZM50.6251 35.75C50.6214 37.092 50.3062 38.4149 49.7043 39.6143C49.1023 40.8138 48.2301 41.8571 47.1564 42.6622C47.0673 42.7318 46.9955 42.8211 46.9468 42.9231C46.898 43.0251 46.8734 43.137 46.8751 43.25C46.8751 43.4962 46.8266 43.74 46.7324 43.9675C46.6382 44.195 46.5001 44.4017 46.3259 44.5758C46.1518 44.7499 45.9451 44.888 45.7177 44.9823C45.4902 45.0765 45.2464 45.125 45.0001 45.125H39.0001C38.7539 45.125 38.5101 45.0765 38.2826 44.9823C38.0551 44.888 37.8484 44.7499 37.6743 44.5758C37.5002 44.4017 37.3621 44.195 37.2679 43.9675C37.1736 43.74 37.1251 43.4962 37.1251 43.25V43.2284C37.1234 43.1145 37.095 43.0025 37.042 42.9015C36.9891 42.8005 36.9132 42.7134 36.8204 42.6472C35.7543 41.8522 34.8878 40.8199 34.2898 39.6321C33.6918 38.4442 33.3787 37.1334 33.3751 35.8034C33.3498 31.1272 37.1251 27.2375 41.7929 27.125C42.9429 27.0974 44.0868 27.3 45.1572 27.7211C46.2277 28.1422 47.2031 28.7731 48.0261 29.5768C48.8491 30.3804 49.503 31.3406 49.9493 32.4008C50.3957 33.461 50.6255 34.5997 50.6251 35.75ZM48.3751 35.75C48.3754 34.8996 48.2055 34.0578 47.8755 33.2741C47.5455 32.4904 47.062 31.7807 46.4536 31.1866C45.8451 30.5926 45.124 30.1263 44.3326 29.8151C43.5412 29.504 42.6955 29.3544 41.8454 29.375C38.3964 29.4584 35.6064 32.3338 35.6251 35.7866C35.6272 36.7704 35.8586 37.7402 36.3009 38.6189C36.7433 39.4977 37.3843 40.2613 38.1733 40.8491C38.4954 41.0907 38.7658 41.3945 38.9686 41.7425C39.1713 42.0905 39.3022 42.4756 39.3536 42.875H40.8751V39.9688L38.2042 37.2959C38.0995 37.1913 38.0165 37.0671 37.9599 36.9303C37.9033 36.7936 37.8741 36.6471 37.8741 36.4991C37.8741 36.2002 37.9928 35.9135 38.2042 35.7022C38.4155 35.4908 38.7022 35.3721 39.0011 35.3721C39.3 35.3721 39.5866 35.4908 39.7979 35.7022L42.0001 37.9063L44.2042 35.7022C44.4155 35.4908 44.7022 35.3721 45.0011 35.3721C45.2999 35.3721 45.5866 35.4908 45.7979 35.7022C46.0093 35.9135 46.128 36.2002 46.128 36.4991C46.128 36.798 46.0093 37.0846 45.7979 37.2959L43.1251 39.9688V42.875H44.6486C44.698 42.4785 44.8264 42.0959 45.0263 41.7498C45.2261 41.4038 45.4933 41.1013 45.812 40.8603C46.6106 40.2697 47.2588 39.4992 47.7041 38.6114C48.1494 37.7235 48.3793 36.7433 48.3751 35.75Z" fill="white"/>
    </g>
    <defs>
        <filter id="filter0_bd_24_183" x="0" y="0" width="84" height="84" filterUnits="userSpaceOnUse" color-interpolation-filters="sRGB">
            <feFlood flood-opacity="0" result="BackgroundImageFix"/>
            <feGaussianBlur in="BackgroundImageFix" stdDeviation="5"/>
            <feComposite in2="SourceAlpha" operator="in" result="effect1_backgroundBlur_24_183"/>
            <feColorMatrix in="SourceAlpha" type="matrix" values="0 0 0 0 0 0 0 0 0 0 0 0 0 0 0 0 0 0 127 0" result="hardAlpha"/>
            <feOffset dy="4"/>
            <feGaussianBlur stdDeviation="7"/>
            <feColorMatrix type="matrix" values="0 0 0 0 0 0 0 0 0 0 0 0 0 0 0 0 0 0 0.12 0"/>
            <feBlend mode="normal" in2="effect1_backgroundBlur_24_183" result="effect2_dropShadow_24_183"/>
            <feBlend mode="normal" in="SourceGraphic" in2="effect2_dropShadow_24_183" result="shape"/>
        </filter>
    </defs>
</svg>
