<svg width="123" height="20" viewBox="0 0 123 20" fill="none" xmlns="http://www.w3.org/2000/svg">
    <g clip-path="url(#clip0_2809_462)">
        <path fill-rule="evenodd" clip-rule="evenodd" d="M12.189 15.9554C12.1866 15.9695 12.184 15.9834 12.1814 15.9973C12.184 15.9834 12.1866 15.9695 12.189 15.9555C12.189 15.9555 12.189 15.9555 12.189 15.9554ZM5.95546 15.5555V15.1555H2.22212C1.71791 15.1555 1.29604 14.9808 0.934922 14.6203C0.57457 14.2593 0.399902 13.8374 0.399902 13.3332C0.399902 10.8375 1.21647 8.69797 2.85186 6.89406C4.49005 5.08635 6.51138 4.05343 8.93264 3.78638L9.28879 3.7471V1.11101C9.28879 0.897145 9.35687 0.736394 9.49163 0.601634C9.62537 0.467902 9.78561 0.399902 9.9999 0.399902C10.2139 0.399902 10.3747 0.467754 10.5092 0.6016C10.6431 0.736168 10.711 0.896949 10.711 1.11101V3.7471L11.0672 3.78638C13.4884 4.05343 15.5098 5.08641 17.148 6.89412C18.7834 8.69802 19.5999 10.8375 19.5999 13.3332C19.5999 13.8375 19.4251 14.2595 19.0646 14.6206C18.7035 14.9809 18.2818 15.1555 17.7777 15.1555H14.0443V15.5555C14.0443 16.6708 13.6519 17.6156 12.8559 18.4115C12.06 19.2075 11.1152 19.5999 9.9999 19.5999C8.88461 19.5999 7.93981 19.2075 7.14386 18.4115C6.3479 17.6156 5.95546 16.6708 5.95546 15.5555ZM1.82212 13.3332V13.7332H18.1777V13.3332C18.1777 11.079 17.3763 9.14395 15.7827 7.55039C14.1892 5.95683 12.2541 5.15546 9.9999 5.15546C7.7457 5.15546 5.81062 5.95683 4.21706 7.55039C2.6235 9.14395 1.82212 11.079 1.82212 13.3332ZM9.9999 18.1777C10.7178 18.1777 11.3426 17.9176 11.8525 17.4085C12.3616 16.8986 12.6221 16.2734 12.6221 15.5555V15.1555H7.37768V15.5555C7.37768 16.2736 7.63827 16.8984 8.14817 17.4083C8.65747 17.9176 9.28196 18.1777 9.9999 18.1777Z" fill="#404040"/>
    </g>
    <path d="M36.288 15.16C35.2 15.16 34.2453 14.92 33.424 14.44C32.6133 13.96 31.984 13.288 31.536 12.424C31.088 11.5493 30.864 10.5253 30.864 9.352C30.864 8.168 31.088 7.144 31.536 6.28C31.984 5.416 32.6133 4.74933 33.424 4.28C34.2347 3.8 35.1893 3.56 36.288 3.56C37.3867 3.56 38.3413 3.8 39.152 4.28C39.9627 4.74933 40.592 5.416 41.04 6.28C41.488 7.144 41.712 8.16267 41.712 9.336C41.712 10.52 41.488 11.5493 41.04 12.424C40.592 13.288 39.9627 13.96 39.152 14.44C38.3413 14.92 37.3867 15.16 36.288 15.16ZM36.288 13.4C37.3227 13.4 38.128 13.0427 38.704 12.328C39.28 11.6133 39.568 10.6213 39.568 9.352C39.568 8.072 39.28 7.08 38.704 6.376C38.1387 5.672 37.3333 5.32 36.288 5.32C35.2533 5.32 34.448 5.672 33.872 6.376C33.296 7.08 33.008 8.072 33.008 9.352C33.008 10.6213 33.296 11.6133 33.872 12.328C34.448 13.0427 35.2533 13.4 36.288 13.4ZM47.3305 15.16C46.5092 15.16 45.7945 14.9947 45.1865 14.664C44.5785 14.3227 44.1092 13.8427 43.7785 13.224C43.4478 12.6053 43.2825 11.88 43.2825 11.048C43.2825 10.216 43.4478 9.50133 43.7785 8.904C44.1092 8.296 44.5785 7.832 45.1865 7.512C45.7945 7.18133 46.5092 7.016 47.3305 7.016C47.8318 7.016 48.3278 7.096 48.8185 7.256C49.3092 7.416 49.7145 7.64 50.0345 7.928L49.4425 9.32C49.1652 9.07467 48.8505 8.888 48.4985 8.76C48.1572 8.632 47.8265 8.568 47.5065 8.568C46.8132 8.568 46.2745 8.78667 45.8905 9.224C45.5172 9.65067 45.3305 10.264 45.3305 11.064C45.3305 11.8533 45.5172 12.4773 45.8905 12.936C46.2745 13.384 46.8132 13.608 47.5065 13.608C47.8158 13.608 48.1465 13.544 48.4985 13.416C48.8505 13.288 49.1652 13.096 49.4425 12.84L50.0345 14.248C49.7145 14.5253 49.3038 14.7493 48.8025 14.92C48.3118 15.08 47.8212 15.16 47.3305 15.16ZM51.4798 15V7.176H55.7038C56.7171 7.176 57.4424 7.35733 57.8798 7.72C58.3278 8.072 58.5518 8.57333 58.5518 9.224C58.5518 9.62933 58.4398 9.98133 58.2158 10.28C57.9918 10.5787 57.6824 10.7973 57.2878 10.936C57.7998 11.0533 58.1838 11.2773 58.4398 11.608C58.6958 11.9387 58.8238 12.3387 58.8238 12.808C58.8238 13.48 58.5678 14.0133 58.0558 14.408C57.5438 14.8027 56.8024 15 55.8318 15H51.4798ZM53.3358 10.392H55.5118C55.8958 10.392 56.1944 10.3067 56.4078 10.136C56.6211 9.95467 56.7278 9.704 56.7278 9.384C56.7278 9.064 56.6211 8.824 56.4078 8.664C56.1944 8.49333 55.8958 8.408 55.5118 8.408H53.3358V10.392ZM53.3358 13.768H55.6558C56.5518 13.768 56.9998 13.4107 56.9998 12.696C56.9998 11.9813 56.5518 11.624 55.6558 11.624H53.3358V13.768ZM64.4455 15.16C63.5602 15.16 62.7975 14.9947 62.1575 14.664C61.5175 14.3333 61.0215 13.864 60.6695 13.256C60.3282 12.648 60.1575 11.928 60.1575 11.096C60.1575 10.2853 60.3228 9.576 60.6535 8.968C60.9948 8.36 61.4588 7.88533 62.0455 7.544C62.6428 7.192 63.3202 7.016 64.0775 7.016C65.1868 7.016 66.0615 7.368 66.7015 8.072C67.3522 8.776 67.6775 9.736 67.6775 10.952V11.544H62.0775C62.2268 12.9413 63.0268 13.64 64.4775 13.64C64.9148 13.64 65.3522 13.576 65.7895 13.448C66.2268 13.3093 66.6268 13.096 66.9895 12.808L67.5495 14.152C67.1762 14.4613 66.7068 14.7067 66.1415 14.888C65.5762 15.0693 65.0108 15.16 64.4455 15.16ZM64.1575 8.376C63.5708 8.376 63.0962 8.55733 62.7335 8.92C62.3708 9.28267 62.1522 9.77333 62.0775 10.392H66.0135C65.9708 9.74133 65.7895 9.24533 65.4695 8.904C65.1602 8.552 64.7228 8.376 64.1575 8.376ZM80.0881 17.08V15H69.4641V7.176H71.3521V13.432H74.0401V7.176H75.9281V13.432H78.6161V7.176H80.5041V13.432H81.7841V17.08H80.0881ZM87.133 15.16C86.2477 15.16 85.485 14.9947 84.845 14.664C84.205 14.3333 83.709 13.864 83.357 13.256C83.0157 12.648 82.845 11.928 82.845 11.096C82.845 10.2853 83.0103 9.576 83.341 8.968C83.6823 8.36 84.1463 7.88533 84.733 7.544C85.3303 7.192 86.0077 7.016 86.765 7.016C87.8743 7.016 88.749 7.368 89.389 8.072C90.0397 8.776 90.365 9.736 90.365 10.952V11.544H84.765C84.9143 12.9413 85.7143 13.64 87.165 13.64C87.6023 13.64 88.0397 13.576 88.477 13.448C88.9143 13.3093 89.3143 13.096 89.677 12.808L90.237 14.152C89.8637 14.4613 89.3943 14.7067 88.829 14.888C88.2637 15.0693 87.6983 15.16 87.133 15.16ZM86.845 8.376C86.2583 8.376 85.7837 8.55733 85.421 8.92C85.0583 9.28267 84.8397 9.77333 84.765 10.392H88.701C88.6583 9.74133 88.477 9.24533 88.157 8.904C87.8477 8.552 87.4103 8.376 86.845 8.376ZM92.1516 15V7.176H94.1516V10.2H97.6076V7.176H99.6076V15H97.6076V11.768H94.1516V15H92.1516ZM101.886 15V7.176H103.694V12.392L107.614 7.176H109.278V15H107.47V9.784L103.55 15H101.886ZM115.414 15.16C114.529 15.16 113.766 14.9947 113.126 14.664C112.486 14.3333 111.99 13.864 111.638 13.256C111.297 12.648 111.126 11.928 111.126 11.096C111.126 10.2853 111.292 9.576 111.622 8.968C111.964 8.36 112.428 7.88533 113.014 7.544C113.612 7.192 114.289 7.016 115.046 7.016C116.156 7.016 117.03 7.368 117.67 8.072C118.321 8.776 118.646 9.736 118.646 10.952V11.544H113.046C113.196 12.9413 113.996 13.64 115.446 13.64C115.884 13.64 116.321 13.576 116.758 13.448C117.196 13.3093 117.596 13.096 117.958 12.808L118.518 14.152C118.145 14.4613 117.676 14.7067 117.11 14.888C116.545 15.0693 115.98 15.16 115.414 15.16ZM115.126 8.376C114.54 8.376 114.065 8.55733 113.702 8.92C113.34 9.28267 113.121 9.77333 113.046 10.392H116.982C116.94 9.74133 116.758 9.24533 116.438 8.904C116.129 8.552 115.692 8.376 115.126 8.376Z" fill="#404040"/>
    <defs>
        <clipPath id="clip0_2809_462">
            <rect width="20" height="20" fill="white"/>
        </clipPath>
    </defs>
</svg>
