<svg width="24" height="25" viewBox="0 0 24 25" fill="none" xmlns="http://www.w3.org/2000/svg">
    <path d="M20.2299 11.7451C20.2015 11.6249 20.1438 11.5136 20.062 11.421C19.9803 11.3284 19.8769 11.2575 19.7611 11.2145L14.3602 9.18853L15.7345 2.31384C15.7657 2.15411 15.744 1.98859 15.6728 1.84226C15.6016 1.69593 15.4847 1.57673 15.3398 1.50264C15.1949 1.42856 15.0299 1.40361 14.8696 1.43156C14.7093 1.45951 14.5624 1.53884 14.4511 1.65759L3.95111 12.9076C3.86583 12.9975 3.80413 13.107 3.77154 13.2266C3.73895 13.3461 3.73647 13.4718 3.76432 13.5925C3.79218 13.7132 3.84951 13.8252 3.93118 13.9183C4.01285 14.0115 4.11632 14.0829 4.23236 14.1263L9.63517 16.1523L8.26454 23.0195C8.23342 23.1792 8.2551 23.3447 8.3263 23.491C8.3975 23.6374 8.51436 23.7566 8.65926 23.8307C8.80415 23.9048 8.9692 23.9297 9.12952 23.9018C9.28983 23.8738 9.43671 23.7945 9.54798 23.6757L20.048 12.4257C20.1317 12.3358 20.1921 12.2268 20.2238 12.1081C20.2555 11.9894 20.2576 11.8648 20.2299 11.7451ZM10.253 20.7292L11.2345 15.8185C11.2697 15.6444 11.2418 15.4634 11.156 15.3078C11.0701 15.1523 10.9319 15.0323 10.7658 14.9692L5.81204 13.1082L13.7452 4.60884L12.7645 9.51947C12.7294 9.69362 12.7572 9.8746 12.8431 10.0301C12.9289 10.1857 13.0672 10.3057 13.2333 10.3688L18.1833 12.2251L10.253 20.7292Z" fill="#5C5C5C"/>
</svg>
