<svg width="18" height="18" viewBox="0 0 18 18" fill="none" xmlns="http://www.w3.org/2000/svg">
    <path d="M2.69999 4.9C2.69999 4.40294 3.10293 4 3.59999 4C4.09704 4 4.49999 4.40294 4.49999 4.9V16.1C4.49999 16.5971 4.09704 17 3.59999 17C3.10293 17 2.69999 16.5971 2.69999 16.1V4.9Z" fill="#5C5C5C"/>
    <path d="M5.39999 4.9C5.39999 4.40294 5.80293 4 6.29999 4C6.79704 4 7.19999 4.40294 7.19999 4.9V16.1C7.19999 16.5971 6.79704 17 6.29999 17C5.80293 17 5.39999 16.5971 5.39999 16.1V4.9Z" fill="#5C5C5C"/>
    <path d="M13.5 4.9C13.5 4.40294 13.9029 4 14.4 4C14.897 4 15.3 4.40294 15.3 4.9V16.1C15.3 16.5971 14.897 17 14.4 17C13.9029 17 13.5 16.5971 13.5 16.1V4.9Z" fill="#5C5C5C"/>
    <path d="M10.8 4.9C10.8 4.40294 11.2029 4 11.7 4C12.197 4 12.6 4.40294 12.6 4.9V16.1C12.6 16.5971 12.197 17 11.7 17C11.2029 17 10.8 16.5971 10.8 16.1V4.9Z" fill="#5C5C5C"/>
    <path d="M15.2 1C15.7523 1 16.2 1.44772 16.2 2C16.2 2.55229 15.7523 3 15.2 3L2.79999 3C2.2477 3 1.79999 2.55229 1.79999 2C1.79999 1.44772 2.2477 1 2.79999 1L15.2 1Z" fill="#5C5C5C"/>
</svg>
