<svg width="18" height="18" viewBox="0 0 18 18" fill="none" xmlns="http://www.w3.org/2000/svg">
    <path d="M9.48375 0.433697C9.34195 0.334471 9.17307 0.28125 9 0.28125C8.82693 0.28125 8.65805 0.334471 8.51625 0.433697C7.42903 1.23496 6.43432 2.15467 5.55047 3.17588C3.57539 5.44417 2.53125 7.84815 2.53125 10.1249C2.53125 11.8405 3.21278 13.4858 4.4259 14.699C5.63903 15.9121 7.28438 16.5936 9 16.5936C10.7156 16.5936 12.361 15.9121 13.5741 14.699C14.7872 13.4858 15.4688 11.8405 15.4688 10.1249C15.4688 4.68549 9.72844 0.604556 9.48375 0.433697ZM9 14.9061C7.73233 14.9048 6.51696 14.4007 5.62058 13.5043C4.72421 12.6079 4.22005 11.3925 4.21875 10.1249C4.21875 7.78276 5.625 5.66917 6.79922 4.30932C7.46962 3.53925 8.20602 2.8292 9 2.18729C9.79398 2.8292 10.5304 3.53925 11.2008 4.30932C12.375 5.66917 13.7812 7.78276 13.7812 10.1249C13.7799 11.3925 13.2758 12.6079 12.3794 13.5043C11.483 14.4007 10.2677 14.9048 9 14.9061ZM12.4889 11.2217C12.3123 11.7832 12.0027 12.2938 11.5865 12.71C11.1703 13.1262 10.6598 13.4357 10.0983 13.6124C10.0163 13.6379 9.93099 13.6509 9.84516 13.651C9.64346 13.6512 9.44839 13.5791 9.29528 13.4478C9.14218 13.3165 9.04117 13.1347 9.01056 12.9353C8.97996 12.736 9.02178 12.5322 9.12845 12.3611C9.23512 12.1899 9.39958 12.0626 9.59203 12.0022C9.89462 11.9071 10.1698 11.7404 10.394 11.5161C10.6183 11.2918 10.7851 11.0167 10.8802 10.7141C10.9134 10.6084 10.9671 10.5102 11.0383 10.4253C11.1095 10.3403 11.1967 10.2702 11.2949 10.219C11.4934 10.1154 11.7248 10.095 11.9384 10.1621C12.0441 10.1954 12.1422 10.2491 12.2272 10.3203C12.3121 10.3915 12.3822 10.4787 12.4335 10.5769C12.4848 10.6752 12.5161 10.7826 12.5259 10.893C12.5356 11.0034 12.5236 11.1146 12.4903 11.2203L12.4889 11.2217Z" fill="#5C5C5C"/>
</svg>
