<svg width="18" height="18" viewBox="0 0 18 18" fill="none" xmlns="http://www.w3.org/2000/svg">
    <path d="M12.6563 16.3124C12.6563 16.5362 12.5674 16.7508 12.4091 16.909C12.2509 17.0673 12.0363 17.1562 11.8125 17.1562H6.1875C5.96373 17.1562 5.74912 17.0673 5.59088 16.909C5.43265 16.7508 5.34375 16.5362 5.34375 16.3124C5.34375 16.0886 5.43265 15.874 5.59088 15.7158C5.74912 15.5576 5.96373 15.4687 6.1875 15.4687H11.8125C12.0363 15.4687 12.2509 15.5576 12.4091 15.7158C12.5674 15.874 12.6563 16.0886 12.6563 16.3124ZM15.4688 7.31241C15.466 8.31893 15.2296 9.31106 14.7781 10.2107C14.3267 11.1103 13.6725 11.8928 12.8672 12.4966C12.8004 12.5488 12.7466 12.6157 12.71 12.6922C12.6734 12.7687 12.655 12.8526 12.6563 12.9374C12.6563 13.1221 12.6199 13.3049 12.5492 13.4756C12.4785 13.6462 12.375 13.8012 12.2444 13.9318C12.1138 14.0624 11.9588 14.1659 11.7882 14.2366C11.6175 14.3073 11.4347 14.3437 11.25 14.3437H6.75C6.56533 14.3437 6.38247 14.3073 6.21185 14.2366C6.04124 14.1659 5.88622 14.0624 5.75563 13.9318C5.62505 13.8012 5.52147 13.6462 5.4508 13.4756C5.38013 13.3049 5.34375 13.1221 5.34375 12.9374V12.9212C5.34248 12.8358 5.32114 12.7518 5.28144 12.676C5.24175 12.6003 5.18482 12.535 5.11524 12.4853C4.3156 11.8891 3.66579 11.1149 3.21729 10.224C2.76878 9.33304 2.5339 8.34993 2.53125 7.35249C2.51227 3.8453 5.34375 0.928039 8.84461 0.843664C9.70709 0.822939 10.565 0.974947 11.3678 1.29074C12.1707 1.60653 12.9023 2.07973 13.5195 2.68249C14.1367 3.28524 14.6272 4.00538 14.9619 4.8005C15.2967 5.59563 15.469 6.44969 15.4688 7.31241ZM13.7813 7.31241C13.7814 6.67465 13.654 6.04329 13.4065 5.45551C13.159 4.86773 12.7964 4.3354 12.3401 3.88987C11.8837 3.44434 11.3429 3.09461 10.7493 2.86127C10.1558 2.62793 9.52157 2.51569 8.88399 2.53116C6.29719 2.59374 4.20469 4.75023 4.21875 7.33984C4.22033 8.07769 4.39388 8.80503 4.72562 9.46411C5.05736 10.1232 5.53815 10.6959 6.12985 11.1367C6.37145 11.318 6.57428 11.5458 6.72632 11.8068C6.87837 12.0678 6.97656 12.3566 7.01508 12.6562H8.15625V10.4765L6.15305 8.47187C6.07457 8.39338 6.01231 8.30021 5.96983 8.19766C5.92735 8.09511 5.90549 7.98521 5.90549 7.87421C5.90549 7.65005 5.99454 7.43506 6.15305 7.27655C6.31156 7.11805 6.52654 7.029 6.75071 7.029C6.97487 7.029 7.18985 7.11805 7.34836 7.27655L9 8.9296L10.653 7.27655C10.8116 7.11805 11.0265 7.029 11.2507 7.029C11.4749 7.029 11.6899 7.11805 11.8484 7.27655C12.0069 7.43506 12.0959 7.65005 12.0959 7.87421C12.0959 8.09837 12.0069 8.31336 11.8484 8.47187L9.84375 10.4765V12.6562H10.9863C11.0234 12.3588 11.1197 12.0718 11.2696 11.8123C11.4195 11.5528 11.6199 11.3259 11.8589 11.1451C12.4578 10.7022 12.944 10.1243 13.278 9.45843C13.6119 8.79255 13.7844 8.05735 13.7813 7.31241Z" fill="#5C5C5C"/>
</svg>
