<svg width="18" height="18" viewBox="0 0 18 18" fill="none" xmlns="http://www.w3.org/2000/svg">
    <path d="M15.4462 8.24477C15.4146 8.10963 15.3501 7.98439 15.2585 7.88014C15.1669 7.77589 15.0509 7.69585 14.921 7.64711L11.0932 6.21203L12.0776 1.29016C12.1135 1.11015 12.0898 0.923311 12.01 0.75799C11.9302 0.592669 11.7987 0.457881 11.6354 0.374072C11.4721 0.290264 11.2859 0.262006 11.105 0.293586C10.9242 0.325165 10.7586 0.414859 10.6333 0.549063L2.75834 8.98656C2.66359 9.08797 2.59533 9.21119 2.55959 9.34529C2.52385 9.4794 2.52174 9.62024 2.55345 9.75536C2.58516 9.89047 2.6497 10.0157 2.74137 10.1199C2.83304 10.2241 2.94899 10.3041 3.07896 10.3527L6.90678 11.7878L5.9224 16.7097C5.88642 16.8897 5.91012 17.0765 5.98991 17.2419C6.06971 17.4072 6.20125 17.542 6.36457 17.6258C6.52789 17.7096 6.71409 17.7378 6.89493 17.7063C7.07576 17.6747 7.24137 17.585 7.36662 17.4508L15.2416 9.01328C15.3363 8.91187 15.4045 8.78869 15.4401 8.65464C15.4758 8.52059 15.4779 8.37981 15.4462 8.24477ZM8.15974 14.1278L8.70256 11.4152C8.74182 11.2187 8.7099 11.0147 8.61251 10.8396C8.51512 10.6646 8.35861 10.5298 8.17099 10.4596L4.85154 9.21578L9.83881 3.87203L9.29599 6.58469C9.25673 6.78114 9.28865 6.98515 9.38604 7.16022C9.48343 7.33529 9.63994 7.47 9.82756 7.54023L13.1484 8.78406L8.15974 14.1278Z" fill="#5C5C5C"/>
</svg>
