<svg width="18" height="18" viewBox="0 0 18 18" fill="none" xmlns="http://www.w3.org/2000/svg">
    <path d="M14.6595 10.722L9.59695 15.7845C9.51857 15.8631 9.42542 15.9255 9.32286 15.9681C9.2203 16.0107 9.11035 16.0326 8.9993 16.0326C8.88825 16.0326 8.77829 16.0107 8.67573 15.9681C8.57317 15.9255 8.48003 15.8631 8.40164 15.7845L3.33914 10.722C3.18063 10.5634 3.09158 10.3485 3.09158 10.1243C3.09158 9.90013 3.18063 9.68515 3.33914 9.52664C3.49765 9.36813 3.71263 9.27908 3.9368 9.27908C4.16096 9.27908 4.37594 9.36813 4.53445 9.52664L8.15625 13.1484V2.8125C8.15625 2.58872 8.24514 2.37411 8.40338 2.21588C8.56161 2.05764 8.77622 1.96875 9 1.96875C9.22378 1.96875 9.43839 2.05764 9.59662 2.21588C9.75485 2.37411 9.84375 2.58872 9.84375 2.8125V13.1484L13.4655 9.52594C13.6241 9.36743 13.839 9.27838 14.0632 9.27838C14.2874 9.27838 14.5023 9.36743 14.6609 9.52594C14.8194 9.68445 14.9084 9.89943 14.9084 10.1236C14.9084 10.3478 14.8194 10.5627 14.6609 10.7212L14.6595 10.722Z" fill="#5C5C5C"/>
</svg>