<svg width="18" height="18" viewBox="0 0 18 18" fill="none" xmlns="http://www.w3.org/2000/svg">
    <path d="M12.6563 10.5954V3.9375C12.6563 2.9678 12.271 2.03782 11.5854 1.35214C10.8997 0.666461 9.9697 0.28125 9 0.28125C8.0303 0.28125 7.10032 0.666461 6.41464 1.35214C5.72896 2.03782 5.34375 2.9678 5.34375 3.9375V10.5954C4.86128 11.2678 4.5736 12.0603 4.51234 12.8857C4.45109 13.711 4.61864 14.5373 4.99657 15.2736C5.3745 16.0099 5.94816 16.6277 6.65447 17.0591C7.36078 17.4905 8.17238 17.7187 9 17.7187C9.82763 17.7187 10.6392 17.4905 11.3455 17.0591C12.0518 16.6277 12.6255 16.0099 13.0034 15.2736C13.3814 14.5373 13.5489 13.711 13.4877 12.8857C13.4264 12.0603 13.1387 11.2678 12.6563 10.5954ZM9 16.0312C8.46712 16.0313 7.9452 15.8799 7.49501 15.5948C7.04483 15.3096 6.68492 14.9025 6.45718 14.4207C6.22945 13.9389 6.14327 13.4024 6.20868 12.8735C6.27409 12.3447 6.48839 11.8453 6.82664 11.4335C6.95858 11.2804 7.03118 11.0851 7.03125 10.883V3.9375C7.03125 3.41535 7.23867 2.9146 7.60789 2.54538C7.9771 2.17617 8.47786 1.96875 9 1.96875C9.52215 1.96875 10.0229 2.17617 10.3921 2.54538C10.7613 2.9146 10.9688 3.41535 10.9688 3.9375V10.8823C10.9686 11.0795 11.0375 11.2706 11.1635 11.4223C11.5047 11.8332 11.7217 12.3328 11.7894 12.8625C11.857 13.3923 11.7724 13.9304 11.5455 14.4139C11.3186 14.8973 10.9586 15.3062 10.5079 15.5926C10.0571 15.879 9.53408 16.0312 9 16.0312ZM10.6875 13.2188C10.6876 13.515 10.6096 13.806 10.4616 14.0626C10.3135 14.3191 10.1005 14.5322 9.84396 14.6804C9.58744 14.8285 9.29644 14.9065 9.00021 14.9066C8.70397 14.9066 8.41295 14.8287 8.15639 14.6806C7.89983 14.5325 7.68678 14.3195 7.53864 14.0629C7.39051 13.8064 7.31252 13.5154 7.3125 13.2192C7.31249 12.9229 7.39045 12.6319 7.53856 12.3754C7.68667 12.1188 7.89971 11.9058 8.15625 11.7577V6.46875C8.15625 6.24497 8.24515 6.03036 8.40338 5.87213C8.56161 5.71389 8.77623 5.625 9 5.625C9.22378 5.625 9.43839 5.71389 9.59662 5.87213C9.75486 6.03036 9.84375 6.24497 9.84375 6.46875V11.7577C10.1002 11.9057 10.3132 12.1187 10.4613 12.3752C10.6094 12.6317 10.6874 12.9226 10.6875 13.2188Z" fill="#5C5C5C"/>
</svg>
