<svg width="60" height="60" viewBox="0 0 56 56" fill="none" xmlns="http://www.w3.org/2000/svg">
    <rect width="56" height="56" rx="28" fill="#303030" fill-opacity="0.5"/>
    <path d="M39.3859 22.4978C39.2008 22.4037 38.9933 22.3626 38.7863 22.3791C38.5793 22.3957 38.3809 22.4692 38.2131 22.5916L35.875 24.2903V22.75C35.875 22.2527 35.6775 21.7758 35.3258 21.4242C34.9742 21.0725 34.4973 20.875 34 20.875H19C18.5027 20.875 18.0258 21.0725 17.6742 21.4242C17.3225 21.7758 17.125 22.2527 17.125 22.75V33.25C17.125 33.7473 17.3225 34.2242 17.6742 34.5758C18.0258 34.9275 18.5027 35.125 19 35.125H34C34.4973 35.125 34.9742 34.9275 35.3258 34.5758C35.6775 34.2242 35.875 33.7473 35.875 33.25V31.7097L38.2131 33.4103C38.381 33.5324 38.5794 33.6058 38.7863 33.6221C38.9933 33.6385 39.2007 33.5973 39.3857 33.503C39.5706 33.4088 39.7259 33.2652 39.8344 33.0882C39.9428 32.9112 40.0001 32.7076 40 32.5V23.5C40 23.2926 39.9426 23.0892 39.8343 22.9123C39.7259 22.7355 39.5707 22.592 39.3859 22.4978ZM33.625 32.875H19.375V23.125H33.625V32.875ZM37.75 30.2903L35.875 28.9272V27.0728L37.75 25.7097V30.2903Z" fill="white"/>
</svg>
