<svg width="60" height="60" viewBox="0 0 60 60" fill="none" xmlns="http://www.w3.org/2000/svg">
<g filter="url(#filter0_bd_137_1542)">
<rect x="14" y="10" width="32" height="32" rx="16" fill="white" fill-opacity="0.5"/>
<path d="M37.25 28.5001L31.25 24.0001L32.45 23.1001C32.5431 23.0302 32.6187 22.9396 32.6708 22.8355C32.7229 22.7313 32.75 22.6165 32.75 22.5001C32.7503 21.8002 32.4838 21.1265 32.0047 20.6164C31.5257 20.1062 30.8701 19.7978 30.1716 19.7541C29.4731 19.7105 28.7842 19.9348 28.2453 20.3813C27.7064 20.8279 27.3581 21.4631 27.2712 22.1576C27.2589 22.2553 27.266 22.3545 27.292 22.4496C27.3181 22.5446 27.3626 22.6336 27.423 22.7114C27.4834 22.7892 27.5586 22.8544 27.6442 22.9032C27.7298 22.9519 27.8241 22.9834 27.9219 22.9957C28.0196 23.008 28.1188 23.001 28.2139 22.9749C28.3089 22.9489 28.3979 22.9044 28.4757 22.844C28.5535 22.7836 28.6187 22.7084 28.6675 22.6228C28.7162 22.5372 28.7477 22.4428 28.76 22.3451C28.7962 22.059 28.9302 21.7943 29.1392 21.5958C29.3482 21.3972 29.6195 21.277 29.907 21.2555C30.1945 21.234 30.4806 21.3126 30.7168 21.4779C30.953 21.6432 31.1248 21.8851 31.2031 22.1626L29.5625 23.3901C29.5531 23.3963 29.5444 23.4032 29.5356 23.4101L22.75 28.5001C22.5401 28.6575 22.3851 28.8769 22.3069 29.1274C22.2286 29.3778 22.2312 29.6465 22.3141 29.8954C22.3971 30.1443 22.5563 30.3607 22.7691 30.5141C22.9819 30.6675 23.2376 30.7501 23.5 30.7501H36.5C36.7624 30.7501 37.0181 30.6675 37.2309 30.5141C37.4437 30.3607 37.6029 30.1443 37.6859 29.8954C37.7688 29.6465 37.7714 29.3778 37.6931 29.1274C37.6149 28.8769 37.4599 28.6575 37.25 28.5001ZM24.25 29.2501L30 24.9376L35.75 29.2501H24.25Z" fill="#404040"/>
</g>
<defs>
<filter id="filter0_bd_137_1542" x="0" y="0" width="60" height="60" filterUnits="userSpaceOnUse" color-interpolation-filters="sRGB">
<feFlood flood-opacity="0" result="BackgroundImageFix"/>
<feGaussianBlur in="BackgroundImageFix" stdDeviation="5"/>
<feComposite in2="SourceAlpha" operator="in" result="effect1_backgroundBlur_137_1542"/>
<feColorMatrix in="SourceAlpha" type="matrix" values="0 0 0 0 0 0 0 0 0 0 0 0 0 0 0 0 0 0 127 0" result="hardAlpha"/>
<feOffset dy="4"/>
<feGaussianBlur stdDeviation="7"/>
<feColorMatrix type="matrix" values="0 0 0 0 0 0 0 0 0 0 0 0 0 0 0 0 0 0 0.12 0"/>
<feBlend mode="normal" in2="effect1_backgroundBlur_137_1542" result="effect2_dropShadow_137_1542"/>
<feBlend mode="normal" in="SourceGraphic" in2="effect2_dropShadow_137_1542" result="shape"/>
</filter>
</defs>
</svg>
