<svg width="60" height="60" viewBox="0 0 60 60" fill="none" xmlns="http://www.w3.org/2000/svg">
<g filter="url(#filter0_bd_137_1533)">
<rect x="14" y="10" width="32" height="32" rx="16" fill="white" fill-opacity="0.5"/>
<path d="M37.25 25.25V23.5C37.25 23.1685 37.1183 22.8505 36.8839 22.6161C36.6495 22.3817 36.3315 22.25 36 22.25H35V22C35 21.6685 34.8683 21.3505 34.6339 21.1161C34.3995 20.8817 34.0815 20.75 33.75 20.75H32.25C31.9185 20.75 31.6005 20.8817 31.3661 21.1161C31.1317 21.3505 31 21.6685 31 22V25.25H29V22C29 21.6685 28.8683 21.3505 28.6339 21.1161C28.3995 20.8817 28.0815 20.75 27.75 20.75H26.25C25.9185 20.75 25.6005 20.8817 25.3661 21.1161C25.1317 21.3505 25 21.6685 25 22V22.25H24C23.6685 22.25 23.3505 22.3817 23.1161 22.6161C22.8817 22.8505 22.75 23.1685 22.75 23.5V25.25C22.5511 25.25 22.3603 25.329 22.2197 25.4697C22.079 25.6103 22 25.8011 22 26C22 26.1989 22.079 26.3897 22.2197 26.5303C22.3603 26.671 22.5511 26.75 22.75 26.75V28.5C22.75 28.8315 22.8817 29.1495 23.1161 29.3839C23.3505 29.6183 23.6685 29.75 24 29.75H25V30C25 30.3315 25.1317 30.6495 25.3661 30.8839C25.6005 31.1183 25.9185 31.25 26.25 31.25H27.75C28.0815 31.25 28.3995 31.1183 28.6339 30.8839C28.8683 30.6495 29 30.3315 29 30V26.75H31V30C31 30.3315 31.1317 30.6495 31.3661 30.8839C31.6005 31.1183 31.9185 31.25 32.25 31.25H33.75C34.0815 31.25 34.3995 31.1183 34.6339 30.8839C34.8683 30.6495 35 30.3315 35 30V29.75H36C36.3315 29.75 36.6495 29.6183 36.8839 29.3839C37.1183 29.1495 37.25 28.8315 37.25 28.5V26.75C37.4489 26.75 37.6397 26.671 37.7803 26.5303C37.921 26.3897 38 26.1989 38 26C38 25.8011 37.921 25.6103 37.7803 25.4697C37.6397 25.329 37.4489 25.25 37.25 25.25ZM24.25 28.25V23.75H25V28.25H24.25ZM27.5 29.75H26.5V22.25H27.5V29.75ZM33.5 29.75H32.5V22.25H33.5V29.75ZM35.75 28.25H35V23.75H35.75V28.25Z" fill="#404040"/>
</g>
<defs>
<filter id="filter0_bd_137_1533" x="0" y="0" width="60" height="60" filterUnits="userSpaceOnUse" color-interpolation-filters="sRGB">
<feFlood flood-opacity="0" result="BackgroundImageFix"/>
<feGaussianBlur in="BackgroundImageFix" stdDeviation="5"/>
<feComposite in2="SourceAlpha" operator="in" result="effect1_backgroundBlur_137_1533"/>
<feColorMatrix in="SourceAlpha" type="matrix" values="0 0 0 0 0 0 0 0 0 0 0 0 0 0 0 0 0 0 127 0" result="hardAlpha"/>
<feOffset dy="4"/>
<feGaussianBlur stdDeviation="7"/>
<feColorMatrix type="matrix" values="0 0 0 0 0 0 0 0 0 0 0 0 0 0 0 0 0 0 0.12 0"/>
<feBlend mode="normal" in2="effect1_backgroundBlur_137_1533" result="effect2_dropShadow_137_1533"/>
<feBlend mode="normal" in="SourceGraphic" in2="effect2_dropShadow_137_1533" result="shape"/>
</filter>
</defs>
</svg>
