<svg width="60" height="60" viewBox="0 0 60 60" fill="none" xmlns="http://www.w3.org/2000/svg">
<g filter="url(#filter0_bd_137_1528)">
<rect x="14" y="10" width="32" height="32" rx="16" fill="white" fill-opacity="0.5"/>
<path d="M26.25 23.4999V20.4999C26.25 20.301 26.329 20.1102 26.4697 19.9696C26.6103 19.8289 26.8011 19.7499 27 19.7499C27.1989 19.7499 27.3897 19.8289 27.5303 19.9696C27.671 20.1102 27.75 20.301 27.75 20.4999V23.4999C27.75 23.6988 27.671 23.8896 27.5303 24.0302C27.3897 24.1709 27.1989 24.2499 27 24.2499C26.8011 24.2499 26.6103 24.1709 26.4697 24.0302C26.329 23.8896 26.25 23.6988 26.25 23.4999ZM35.75 20.4999V31.9999C35.75 32.1988 35.671 32.3896 35.5303 32.5302C35.3897 32.6709 35.1989 32.7499 35 32.7499C34.8011 32.7499 34.6103 32.6709 34.4697 32.5302C34.329 32.3896 34.25 32.1988 34.25 31.9999V29.2499H31.5C31.3011 29.2499 31.1103 29.1709 30.9697 29.0302C30.829 28.8896 30.75 28.6988 30.75 28.4999C30.7734 27.2824 30.927 26.071 31.2081 24.8862C31.8387 22.2762 33.0475 20.5205 34.7044 19.8124C34.8183 19.7635 34.9426 19.7437 35.0661 19.7546C35.1896 19.7655 35.3084 19.8069 35.412 19.875C35.5156 19.9431 35.6007 20.0359 35.6597 20.1449C35.7187 20.254 35.7497 20.3759 35.75 20.4999ZM34.25 21.9324C33.4125 22.8124 32.9375 24.1249 32.6731 25.2112C32.4753 26.0455 32.3453 26.8946 32.2844 27.7499H34.25V21.9324ZM30 20.4374C29.9834 20.2385 29.8885 20.0543 29.7361 19.9254C29.5838 19.7965 29.3864 19.7333 29.1875 19.7499C28.9886 19.7665 28.8044 19.8614 28.6755 20.0138C28.5465 20.1662 28.4834 20.3635 28.5 20.5624L28.75 23.5287C28.75 23.9928 28.5656 24.4379 28.2374 24.7661C27.9092 25.0943 27.4641 25.2787 27 25.2787C26.5359 25.2787 26.0908 25.0943 25.7626 24.7661C25.4344 24.4379 25.25 23.9928 25.25 23.5287L25.5 20.5624C25.5082 20.4639 25.4969 20.3648 25.4668 20.2706C25.4367 20.1765 25.3884 20.0892 25.3245 20.0138C25.2607 19.9383 25.1826 19.8762 25.0948 19.8309C25.0069 19.7857 24.911 19.7581 24.8125 19.7499C24.714 19.7417 24.6149 19.753 24.5207 19.7831C24.4266 19.8132 24.3393 19.8616 24.2639 19.9254C24.1884 19.9892 24.1263 20.0673 24.081 20.1552C24.0357 20.243 24.0082 20.3389 24 20.4374L23.75 23.4374C23.75 23.4587 23.75 23.4793 23.75 23.4999C23.7512 24.2311 23.9985 24.9406 24.452 25.5142C24.9055 26.0877 25.5388 26.492 26.25 26.6618V31.9999C26.25 32.1988 26.329 32.3896 26.4697 32.5302C26.6103 32.6709 26.8011 32.7499 27 32.7499C27.1989 32.7499 27.3897 32.6709 27.5303 32.5302C27.671 32.3896 27.75 32.1988 27.75 31.9999V26.6618C28.4612 26.492 29.0945 26.0877 29.548 25.5142C30.0015 24.9406 30.2488 24.2311 30.25 23.4999C30.25 23.4793 30.25 23.4587 30.25 23.4374L30 20.4374Z" fill="#404040"/>
</g>
<defs>
<filter id="filter0_bd_137_1528" x="0" y="0" width="60" height="60" filterUnits="userSpaceOnUse" color-interpolation-filters="sRGB">
<feFlood flood-opacity="0" result="BackgroundImageFix"/>
<feGaussianBlur in="BackgroundImageFix" stdDeviation="5"/>
<feComposite in2="SourceAlpha" operator="in" result="effect1_backgroundBlur_137_1528"/>
<feColorMatrix in="SourceAlpha" type="matrix" values="0 0 0 0 0 0 0 0 0 0 0 0 0 0 0 0 0 0 127 0" result="hardAlpha"/>
<feOffset dy="4"/>
<feGaussianBlur stdDeviation="7"/>
<feColorMatrix type="matrix" values="0 0 0 0 0 0 0 0 0 0 0 0 0 0 0 0 0 0 0.12 0"/>
<feBlend mode="normal" in2="effect1_backgroundBlur_137_1528" result="effect2_dropShadow_137_1528"/>
<feBlend mode="normal" in="SourceGraphic" in2="effect2_dropShadow_137_1528" result="shape"/>
</filter>
</defs>
</svg>
