<svg width="70" height="70" viewBox="0 0 70 70" fill="none" xmlns="http://www.w3.org/2000/svg">
<g filter="url(#filter0_bdd_137_1589)">
<rect x="19" y="19" width="32" height="32" rx="16" fill="#674DB2"/>
<path d="M31.25 32.4999V29.4999C31.25 29.301 31.329 29.1102 31.4697 28.9696C31.6103 28.8289 31.8011 28.7499 32 28.7499C32.1989 28.7499 32.3897 28.8289 32.5303 28.9696C32.671 29.1102 32.75 29.301 32.75 29.4999V32.4999C32.75 32.6988 32.671 32.8896 32.5303 33.0302C32.3897 33.1709 32.1989 33.2499 32 33.2499C31.8011 33.2499 31.6103 33.1709 31.4697 33.0302C31.329 32.8896 31.25 32.6988 31.25 32.4999ZM40.75 29.4999V40.9999C40.75 41.1988 40.671 41.3896 40.5303 41.5302C40.3897 41.6709 40.1989 41.7499 40 41.7499C39.8011 41.7499 39.6103 41.6709 39.4697 41.5302C39.329 41.3896 39.25 41.1988 39.25 40.9999V38.2499H36.5C36.3011 38.2499 36.1103 38.1709 35.9697 38.0302C35.829 37.8896 35.75 37.6988 35.75 37.4999C35.7734 36.2824 35.927 35.071 36.2081 33.8862C36.8387 31.2762 38.0475 29.5205 39.7044 28.8124C39.8183 28.7635 39.9426 28.7437 40.0661 28.7546C40.1896 28.7655 40.3084 28.8069 40.412 28.875C40.5156 28.9431 40.6007 29.0359 40.6597 29.1449C40.7187 29.254 40.7497 29.3759 40.75 29.4999ZM39.25 30.9324C38.4125 31.8124 37.9375 33.1249 37.6731 34.2112C37.4753 35.0455 37.3453 35.8946 37.2844 36.7499H39.25V30.9324ZM35 29.4374C34.9834 29.2385 34.8885 29.0543 34.7361 28.9254C34.5838 28.7965 34.3864 28.7333 34.1875 28.7499C33.9886 28.7665 33.8044 28.8614 33.6755 29.0138C33.5465 29.1662 33.4834 29.3635 33.5 29.5624L33.75 32.5287C33.75 32.9928 33.5656 33.4379 33.2374 33.7661C32.9092 34.0943 32.4641 34.2787 32 34.2787C31.5359 34.2787 31.0908 34.0943 30.7626 33.7661C30.4344 33.4379 30.25 32.9928 30.25 32.5287L30.5 29.5624C30.5082 29.4639 30.4969 29.3648 30.4668 29.2706C30.4367 29.1765 30.3884 29.0892 30.3245 29.0138C30.2607 28.9383 30.1826 28.8762 30.0948 28.8309C30.0069 28.7857 29.911 28.7581 29.8125 28.7499C29.714 28.7417 29.6149 28.753 29.5207 28.7831C29.4266 28.8132 29.3393 28.8616 29.2639 28.9254C29.1884 28.9892 29.1263 29.0673 29.081 29.1552C29.0357 29.243 29.0082 29.3389 29 29.4374L28.75 32.4374C28.75 32.4587 28.75 32.4793 28.75 32.4999C28.7512 33.2311 28.9985 33.9406 29.452 34.5142C29.9055 35.0877 30.5388 35.492 31.25 35.6618V40.9999C31.25 41.1988 31.329 41.3896 31.4697 41.5302C31.6103 41.6709 31.8011 41.7499 32 41.7499C32.1989 41.7499 32.3897 41.6709 32.5303 41.5302C32.671 41.3896 32.75 41.1988 32.75 40.9999V35.6618C33.4612 35.492 34.0945 35.0877 34.548 34.5142C35.0015 33.9406 35.2488 33.2311 35.25 32.4999C35.25 32.4793 35.25 32.4587 35.25 32.4374L35 29.4374Z" fill="white"/>
</g>
<defs>
<filter id="filter0_bdd_137_1589" x="0.9" y="0.9" width="68.2" height="68.2" filterUnits="userSpaceOnUse" color-interpolation-filters="sRGB">
<feFlood flood-opacity="0" result="BackgroundImageFix"/>
<feGaussianBlur in="BackgroundImageFix" stdDeviation="5"/>
<feComposite in2="SourceAlpha" operator="in" result="effect1_backgroundBlur_137_1589"/>
<feColorMatrix in="SourceAlpha" type="matrix" values="0 0 0 0 0 0 0 0 0 0 0 0 0 0 0 0 0 0 127 0" result="hardAlpha"/>
<feOffset dy="4"/>
<feGaussianBlur stdDeviation="7"/>
<feColorMatrix type="matrix" values="0 0 0 0 0 0 0 0 0 0 0 0 0 0 0 0 0 0 0.12 0"/>
<feBlend mode="normal" in2="effect1_backgroundBlur_137_1589" result="effect2_dropShadow_137_1589"/>
<feColorMatrix in="SourceAlpha" type="matrix" values="0 0 0 0 0 0 0 0 0 0 0 0 0 0 0 0 0 0 127 0" result="hardAlpha"/>
<feOffset/>
<feGaussianBlur stdDeviation="9.05"/>
<feColorMatrix type="matrix" values="0 0 0 0 0.44 0 0 0 0 0 0 0 0 0 1 0 0 0 0.43 0"/>
<feBlend mode="normal" in2="effect2_dropShadow_137_1589" result="effect3_dropShadow_137_1589"/>
<feBlend mode="normal" in="SourceGraphic" in2="effect3_dropShadow_137_1589" result="shape"/>
</filter>
</defs>
</svg>
