<svg width="60" height="60" viewBox="0 0 60 60" fill="none" xmlns="http://www.w3.org/2000/svg">
<g filter="url(#filter0_bd_137_1534)">
<rect x="14" y="10" width="32" height="32" rx="16" fill="white" fill-opacity="0.5"/>
<path d="M26.25 32.75C26.25 32.9478 26.1914 33.1411 26.0815 33.3056C25.9716 33.47 25.8154 33.5982 25.6327 33.6739C25.45 33.7496 25.2489 33.7694 25.0549 33.7308C24.8609 33.6922 24.6827 33.597 24.5429 33.4571C24.403 33.3173 24.3078 33.1391 24.2692 32.9451C24.2306 32.7511 24.2504 32.55 24.3261 32.3673C24.4018 32.1846 24.53 32.0284 24.6944 31.9185C24.8589 31.8087 25.0522 31.75 25.25 31.75C25.5152 31.75 25.7696 31.8554 25.9571 32.0429C26.1446 32.2304 26.25 32.4848 26.25 32.75ZM27.25 29.75C27.0522 29.75 26.8589 29.8087 26.6944 29.9185C26.53 30.0284 26.4018 30.1846 26.3261 30.3673C26.2504 30.55 26.2306 30.7511 26.2692 30.9451C26.3078 31.1391 26.403 31.3173 26.5429 31.4571C26.6827 31.597 26.8609 31.6922 27.0549 31.7308C27.2489 31.7694 27.45 31.7496 27.6327 31.6739C27.8154 31.5982 27.9716 31.47 28.0815 31.3056C28.1914 31.1411 28.25 30.9478 28.25 30.75C28.25 30.4848 28.1446 30.2304 27.9571 30.0429C27.7696 29.8554 27.5152 29.75 27.25 29.75ZM23.25 29.75C23.0522 29.75 22.8589 29.8087 22.6944 29.9185C22.53 30.0284 22.4018 30.1846 22.3261 30.3673C22.2504 30.55 22.2306 30.7511 22.2692 30.9451C22.3078 31.1391 22.403 31.3173 22.5429 31.4571C22.6827 31.597 22.8609 31.6922 23.0549 31.7308C23.2489 31.7694 23.45 31.7496 23.6327 31.6739C23.8154 31.5982 23.9716 31.47 24.0815 31.3056C24.1914 31.1411 24.25 30.9478 24.25 30.75C24.25 30.4848 24.1446 30.2304 23.9571 30.0429C23.7696 29.8554 23.5152 29.75 23.25 29.75ZM25.25 29.75C25.4478 29.75 25.6411 29.6914 25.8056 29.5815C25.97 29.4716 26.0982 29.3154 26.1739 29.1327C26.2496 28.95 26.2694 28.7489 26.2308 28.5549C26.1922 28.3609 26.097 28.1828 25.9571 28.0429C25.8173 27.903 25.6391 27.8078 25.4451 27.7692C25.2511 27.7306 25.05 27.7504 24.8673 27.8261C24.6846 27.9018 24.5284 28.03 24.4185 28.1944C24.3086 28.3589 24.25 28.5522 24.25 28.75C24.25 29.0152 24.3554 29.2696 24.5429 29.4571C24.7304 29.6446 24.9848 29.75 25.25 29.75ZM38 20.5C38 20.6989 37.921 20.8897 37.7803 21.0303C37.6397 21.171 37.4489 21.25 37.25 21.25H35.8125L34.1994 22.8619L32.8588 30.7081C32.8204 30.9343 32.7206 31.1455 32.5702 31.3187C32.4198 31.4919 32.2247 31.6204 32.0062 31.6901C31.7877 31.7598 31.5542 31.768 31.3313 31.7139C31.1084 31.6597 30.9047 31.5453 30.7425 31.3831L24.6175 25.2581C24.4549 25.0958 24.3402 24.8918 24.286 24.6686C24.2318 24.4453 24.2402 24.2115 24.3102 23.9927C24.3802 23.7739 24.5091 23.5786 24.6829 23.4283C24.8566 23.278 25.0684 23.1784 25.295 23.1406L33.1388 21.8006L34.8231 20.1163C34.9389 19.9998 35.0766 19.9074 35.2283 19.8446C35.38 19.7817 35.5427 19.7496 35.7069 19.75H37.25C37.4489 19.75 37.6397 19.829 37.7803 19.9697C37.921 20.1103 38 20.3011 38 20.5ZM32.5825 23.4175L26.02 24.5388L31.4619 29.9806L32.5825 23.4175Z" fill="#404040"/>
</g>
<defs>
<filter id="filter0_bd_137_1534" x="0" y="0" width="60" height="60" filterUnits="userSpaceOnUse" color-interpolation-filters="sRGB">
<feFlood flood-opacity="0" result="BackgroundImageFix"/>
<feGaussianBlur in="BackgroundImageFix" stdDeviation="5"/>
<feComposite in2="SourceAlpha" operator="in" result="effect1_backgroundBlur_137_1534"/>
<feColorMatrix in="SourceAlpha" type="matrix" values="0 0 0 0 0 0 0 0 0 0 0 0 0 0 0 0 0 0 127 0" result="hardAlpha"/>
<feOffset dy="4"/>
<feGaussianBlur stdDeviation="7"/>
<feColorMatrix type="matrix" values="0 0 0 0 0 0 0 0 0 0 0 0 0 0 0 0 0 0 0.12 0"/>
<feBlend mode="normal" in2="effect1_backgroundBlur_137_1534" result="effect2_dropShadow_137_1534"/>
<feBlend mode="normal" in="SourceGraphic" in2="effect2_dropShadow_137_1534" result="shape"/>
</filter>
</defs>
</svg>
