<svg width="70" height="70" viewBox="0 0 70 70" fill="none" xmlns="http://www.w3.org/2000/svg">
<g filter="url(#filter0_bdd_137_1593)">
<rect x="19" y="19" width="32" height="32" rx="16" fill="#674DB2"/>
<path d="M31.25 41.75C31.25 41.9478 31.1914 42.1411 31.0815 42.3056C30.9716 42.47 30.8154 42.5982 30.6327 42.6739C30.45 42.7496 30.2489 42.7694 30.0549 42.7308C29.8609 42.6922 29.6827 42.597 29.5429 42.4571C29.403 42.3173 29.3078 42.1391 29.2692 41.9451C29.2306 41.7511 29.2504 41.55 29.3261 41.3673C29.4018 41.1846 29.53 41.0284 29.6944 40.9185C29.8589 40.8087 30.0522 40.75 30.25 40.75C30.5152 40.75 30.7696 40.8554 30.9571 41.0429C31.1446 41.2304 31.25 41.4848 31.25 41.75ZM32.25 38.75C32.0522 38.75 31.8589 38.8087 31.6944 38.9185C31.53 39.0284 31.4018 39.1846 31.3261 39.3673C31.2504 39.55 31.2306 39.7511 31.2692 39.9451C31.3078 40.1391 31.403 40.3173 31.5429 40.4571C31.6827 40.597 31.8609 40.6922 32.0549 40.7308C32.2489 40.7694 32.45 40.7496 32.6327 40.6739C32.8154 40.5982 32.9716 40.47 33.0815 40.3056C33.1914 40.1411 33.25 39.9478 33.25 39.75C33.25 39.4848 33.1446 39.2304 32.9571 39.0429C32.7696 38.8554 32.5152 38.75 32.25 38.75ZM28.25 38.75C28.0522 38.75 27.8589 38.8087 27.6944 38.9185C27.53 39.0284 27.4018 39.1846 27.3261 39.3673C27.2504 39.55 27.2306 39.7511 27.2692 39.9451C27.3078 40.1391 27.403 40.3173 27.5429 40.4571C27.6827 40.597 27.8609 40.6922 28.0549 40.7308C28.2489 40.7694 28.45 40.7496 28.6327 40.6739C28.8154 40.5982 28.9716 40.47 29.0815 40.3056C29.1914 40.1411 29.25 39.9478 29.25 39.75C29.25 39.4848 29.1446 39.2304 28.9571 39.0429C28.7696 38.8554 28.5152 38.75 28.25 38.75ZM30.25 38.75C30.4478 38.75 30.6411 38.6914 30.8056 38.5815C30.97 38.4716 31.0982 38.3154 31.1739 38.1327C31.2496 37.95 31.2694 37.7489 31.2308 37.5549C31.1922 37.3609 31.097 37.1828 30.9571 37.0429C30.8173 36.903 30.6391 36.8078 30.4451 36.7692C30.2511 36.7306 30.05 36.7504 29.8673 36.8261C29.6846 36.9018 29.5284 37.03 29.4185 37.1944C29.3086 37.3589 29.25 37.5522 29.25 37.75C29.25 38.0152 29.3554 38.2696 29.5429 38.4571C29.7304 38.6446 29.9848 38.75 30.25 38.75ZM43 29.5C43 29.6989 42.921 29.8897 42.7803 30.0303C42.6397 30.171 42.4489 30.25 42.25 30.25H40.8125L39.1994 31.8619L37.8588 39.7081C37.8204 39.9343 37.7206 40.1455 37.5702 40.3187C37.4198 40.4919 37.2247 40.6204 37.0062 40.6901C36.7877 40.7598 36.5542 40.768 36.3313 40.7139C36.1084 40.6597 35.9047 40.5453 35.7425 40.3831L29.6175 34.2581C29.4549 34.0958 29.3402 33.8918 29.286 33.6686C29.2318 33.4453 29.2402 33.2115 29.3102 32.9927C29.3802 32.7739 29.5091 32.5786 29.6829 32.4283C29.8566 32.278 30.0684 32.1784 30.295 32.1406L38.1388 30.8006L39.8231 29.1163C39.9389 28.9998 40.0766 28.9074 40.2283 28.8446C40.38 28.7817 40.5427 28.7496 40.7069 28.75H42.25C42.4489 28.75 42.6397 28.829 42.7803 28.9697C42.921 29.1103 43 29.3011 43 29.5ZM37.5825 32.4175L31.02 33.5388L36.4619 38.9806L37.5825 32.4175Z" fill="white"/>
</g>
<defs>
<filter id="filter0_bdd_137_1593" x="0.9" y="0.9" width="68.2" height="68.2" filterUnits="userSpaceOnUse" color-interpolation-filters="sRGB">
<feFlood flood-opacity="0" result="BackgroundImageFix"/>
<feGaussianBlur in="BackgroundImageFix" stdDeviation="5"/>
<feComposite in2="SourceAlpha" operator="in" result="effect1_backgroundBlur_137_1593"/>
<feColorMatrix in="SourceAlpha" type="matrix" values="0 0 0 0 0 0 0 0 0 0 0 0 0 0 0 0 0 0 127 0" result="hardAlpha"/>
<feOffset dy="4"/>
<feGaussianBlur stdDeviation="7"/>
<feColorMatrix type="matrix" values="0 0 0 0 0 0 0 0 0 0 0 0 0 0 0 0 0 0 0.12 0"/>
<feBlend mode="normal" in2="effect1_backgroundBlur_137_1593" result="effect2_dropShadow_137_1593"/>
<feColorMatrix in="SourceAlpha" type="matrix" values="0 0 0 0 0 0 0 0 0 0 0 0 0 0 0 0 0 0 127 0" result="hardAlpha"/>
<feOffset/>
<feGaussianBlur stdDeviation="9.05"/>
<feColorMatrix type="matrix" values="0 0 0 0 0.44 0 0 0 0 0 0 0 0 0 1 0 0 0 0.43 0"/>
<feBlend mode="normal" in2="effect2_dropShadow_137_1593" result="effect3_dropShadow_137_1593"/>
<feBlend mode="normal" in="SourceGraphic" in2="effect3_dropShadow_137_1593" result="shape"/>
</filter>
</defs>
</svg>
