<svg width="70" height="70" viewBox="0 0 70 70" fill="none" xmlns="http://www.w3.org/2000/svg">
<g filter="url(#filter0_bdd_137_1594)">
<rect x="19" y="19" width="32" height="32" rx="16" fill="#674DB2"/>
<path d="M35 31.25C35 31.4489 34.921 31.6397 34.7803 31.7803C34.6397 31.921 34.4489 32 34.25 32H33.25C33.0511 32 32.8603 31.921 32.7197 31.7803C32.579 31.6397 32.5 31.4489 32.5 31.25C32.5 31.0511 32.579 30.8603 32.7197 30.7197C32.8603 30.579 33.0511 30.5 33.25 30.5H34.25C34.4489 30.5 34.6397 30.579 34.7803 30.7197C34.921 30.8603 35 31.0511 35 31.25ZM38.0094 39.2262L38.2375 40.8231C38.2628 41.0004 38.2498 41.1811 38.1992 41.3529C38.1487 41.5247 38.0618 41.6837 37.9444 41.819C37.8271 41.9543 37.682 42.0628 37.5191 42.1372C37.3561 42.2115 37.1791 42.25 37 42.25H33C32.8209 42.25 32.6439 42.2115 32.4809 42.1372C32.318 42.0628 32.1729 41.9543 32.0556 41.819C31.9382 41.6837 31.8513 41.5247 31.8008 41.3529C31.7502 41.1811 31.7372 41.0004 31.7625 40.8231L31.9906 39.2262C31.0099 38.6869 30.1919 37.8942 29.6219 36.931C29.0519 35.9678 28.7508 34.8692 28.75 33.75C28.75 33.5511 28.829 33.3603 28.9697 33.2197C29.1103 33.079 29.3011 33 29.5 33H30.25V29.5C30.25 29.1685 30.3817 28.8505 30.6161 28.6161C30.8505 28.3817 31.1685 28.25 31.5 28.25H38.5C38.8315 28.25 39.1495 28.3817 39.3839 28.6161C39.6183 28.8505 39.75 29.1685 39.75 29.5V33H40.5C40.6989 33 40.8897 33.079 41.0303 33.2197C41.171 33.3603 41.25 33.5511 41.25 33.75C41.2492 34.8692 40.9481 35.9678 40.3781 36.931C39.8081 37.8942 38.9901 38.6869 38.0094 39.2262ZM31.75 33H38.25V29.75H31.75V33ZM36.5756 39.7987C35.5423 40.0671 34.4577 40.0671 33.4244 39.7987L33.2881 40.75H36.7119L36.5756 39.7987ZM39.6906 34.5H30.3125C30.4906 35.6159 31.0607 36.6317 31.9204 37.3651C32.7801 38.0985 33.8731 38.5013 35.0031 38.5013C36.1331 38.5013 37.2261 38.0985 38.0858 37.3651C38.9455 36.6317 39.5156 35.6159 39.6938 34.5H39.6906Z" fill="white"/>
</g>
<defs>
<filter id="filter0_bdd_137_1594" x="0.9" y="0.9" width="68.2" height="68.2" filterUnits="userSpaceOnUse" color-interpolation-filters="sRGB">
<feFlood flood-opacity="0" result="BackgroundImageFix"/>
<feGaussianBlur in="BackgroundImageFix" stdDeviation="5"/>
<feComposite in2="SourceAlpha" operator="in" result="effect1_backgroundBlur_137_1594"/>
<feColorMatrix in="SourceAlpha" type="matrix" values="0 0 0 0 0 0 0 0 0 0 0 0 0 0 0 0 0 0 127 0" result="hardAlpha"/>
<feOffset dy="4"/>
<feGaussianBlur stdDeviation="7"/>
<feColorMatrix type="matrix" values="0 0 0 0 0 0 0 0 0 0 0 0 0 0 0 0 0 0 0.12 0"/>
<feBlend mode="normal" in2="effect1_backgroundBlur_137_1594" result="effect2_dropShadow_137_1594"/>
<feColorMatrix in="SourceAlpha" type="matrix" values="0 0 0 0 0 0 0 0 0 0 0 0 0 0 0 0 0 0 127 0" result="hardAlpha"/>
<feOffset/>
<feGaussianBlur stdDeviation="9.05"/>
<feColorMatrix type="matrix" values="0 0 0 0 0.44 0 0 0 0 0 0 0 0 0 1 0 0 0 0.43 0"/>
<feBlend mode="normal" in2="effect2_dropShadow_137_1594" result="effect3_dropShadow_137_1594"/>
<feBlend mode="normal" in="SourceGraphic" in2="effect3_dropShadow_137_1594" result="shape"/>
</filter>
</defs>
</svg>
