<svg width="60" height="60" viewBox="0 0 60 60" fill="none" xmlns="http://www.w3.org/2000/svg">
<g filter="url(#filter0_bd_137_1536)">
<rect x="14" y="10" width="32" height="32" rx="16" fill="white" fill-opacity="0.5"/>
<path d="M30 22.25C30 22.4489 29.921 22.6397 29.7803 22.7803C29.6397 22.921 29.4489 23 29.25 23H28.25C28.0511 23 27.8603 22.921 27.7197 22.7803C27.579 22.6397 27.5 22.4489 27.5 22.25C27.5 22.0511 27.579 21.8603 27.7197 21.7197C27.8603 21.579 28.0511 21.5 28.25 21.5H29.25C29.4489 21.5 29.6397 21.579 29.7803 21.7197C29.921 21.8603 30 22.0511 30 22.25ZM33.0094 30.2262L33.2375 31.8231C33.2628 32.0004 33.2498 32.1811 33.1992 32.3529C33.1487 32.5247 33.0618 32.6837 32.9444 32.819C32.8271 32.9543 32.682 33.0628 32.5191 33.1372C32.3561 33.2115 32.1791 33.25 32 33.25H28C27.8209 33.25 27.6439 33.2115 27.4809 33.1372C27.318 33.0628 27.1729 32.9543 27.0556 32.819C26.9382 32.6837 26.8513 32.5247 26.8008 32.3529C26.7502 32.1811 26.7372 32.0004 26.7625 31.8231L26.9906 30.2262C26.0099 29.6869 25.1919 28.8942 24.6219 27.931C24.0519 26.9678 23.7508 25.8692 23.75 24.75C23.75 24.5511 23.829 24.3603 23.9697 24.2197C24.1103 24.079 24.3011 24 24.5 24H25.25V20.5C25.25 20.1685 25.3817 19.8505 25.6161 19.6161C25.8505 19.3817 26.1685 19.25 26.5 19.25H33.5C33.8315 19.25 34.1495 19.3817 34.3839 19.6161C34.6183 19.8505 34.75 20.1685 34.75 20.5V24H35.5C35.6989 24 35.8897 24.079 36.0303 24.2197C36.171 24.3603 36.25 24.5511 36.25 24.75C36.2492 25.8692 35.9481 26.9678 35.3781 27.931C34.8081 28.8942 33.9901 29.6869 33.0094 30.2262ZM26.75 24H33.25V20.75H26.75V24ZM31.5756 30.7987C30.5423 31.0671 29.4577 31.0671 28.4244 30.7987L28.2881 31.75H31.7119L31.5756 30.7987ZM34.6906 25.5H25.3125C25.4906 26.6159 26.0607 27.6317 26.9204 28.3651C27.7801 29.0985 28.8731 29.5013 30.0031 29.5013C31.1331 29.5013 32.2261 29.0985 33.0858 28.3651C33.9455 27.6317 34.5156 26.6159 34.6938 25.5H34.6906Z" fill="#404040"/>
</g>
<defs>
<filter id="filter0_bd_137_1536" x="0" y="0" width="60" height="60" filterUnits="userSpaceOnUse" color-interpolation-filters="sRGB">
<feFlood flood-opacity="0" result="BackgroundImageFix"/>
<feGaussianBlur in="BackgroundImageFix" stdDeviation="5"/>
<feComposite in2="SourceAlpha" operator="in" result="effect1_backgroundBlur_137_1536"/>
<feColorMatrix in="SourceAlpha" type="matrix" values="0 0 0 0 0 0 0 0 0 0 0 0 0 0 0 0 0 0 127 0" result="hardAlpha"/>
<feOffset dy="4"/>
<feGaussianBlur stdDeviation="7"/>
<feColorMatrix type="matrix" values="0 0 0 0 0 0 0 0 0 0 0 0 0 0 0 0 0 0 0.12 0"/>
<feBlend mode="normal" in2="effect1_backgroundBlur_137_1536" result="effect2_dropShadow_137_1536"/>
<feBlend mode="normal" in="SourceGraphic" in2="effect2_dropShadow_137_1536" result="shape"/>
</filter>
</defs>
</svg>
