<svg width="56" height="56" viewBox="0 0 56 56" fill="none" xmlns="http://www.w3.org/2000/svg">
    <rect width="56" height="56" rx="28" fill="#674DB2"/>
    <path d="M36.2299 27.0785C36.2015 26.9583 36.1438 26.8469 36.062 26.7544C35.9803 26.6618 35.8769 26.5908 35.7611 26.5478L30.3602 24.5219L31.7345 17.6472C31.7657 17.4875 31.744 17.322 31.6728 17.1756C31.6016 17.0293 31.4847 16.9101 31.3398 16.836C31.1949 16.7619 31.0299 16.737 30.8696 16.7649C30.7093 16.7929 30.5624 16.8722 30.4511 16.991L19.9511 28.241C19.8658 28.3308 19.8041 28.4404 19.7715 28.5599C19.7389 28.6795 19.7365 28.8052 19.7643 28.9259C19.7922 29.0466 19.8495 29.1585 19.9312 29.2517C20.0128 29.3448 20.1163 29.4163 20.2324 29.4597L25.6352 31.4857L24.2645 38.3528C24.2334 38.5126 24.2551 38.6781 24.3263 38.8244C24.3975 38.9708 24.5144 39.09 24.6593 39.164C24.8041 39.2381 24.9692 39.2631 25.1295 39.2351C25.2898 39.2072 25.4367 39.1278 25.548 39.0091L36.048 27.7591C36.1317 27.6692 36.1921 27.5601 36.2238 27.4415C36.2555 27.3228 36.2576 27.1981 36.2299 27.0785ZM26.253 36.0625L27.2345 31.1519C27.2697 30.9777 27.2418 30.7968 27.156 30.6412C27.0701 30.4857 26.9319 30.3656 26.7658 30.3025L21.812 28.4416L29.7452 19.9422L28.7645 24.8528C28.7294 25.027 28.7572 25.208 28.8431 25.3635C28.9289 25.5191 29.0672 25.6391 29.2333 25.7022L34.1833 27.5585L26.253 36.0625Z" fill="white"/>
</svg>
