<svg width="60" height="60" viewBox="0 0 60 60" fill="none" xmlns="http://www.w3.org/2000/svg">
<g filter="url(#filter0_bd_137_1530)">
<rect x="14" y="10" width="32" height="32" rx="16" fill="white" fill-opacity="0.5"/>
<path d="M35.4169 22.25H34.75V20.5C34.75 20.3011 34.671 20.1103 34.5303 19.9697C34.3897 19.829 34.1989 19.75 34 19.75H26C25.8011 19.75 25.6103 19.829 25.4697 19.9697C25.329 20.1103 25.25 20.3011 25.25 20.5V22.25H24.5831C23.5725 22.25 22.75 23.035 22.75 24V29C22.75 29.1989 22.829 29.3897 22.9697 29.5303C23.1103 29.671 23.3011 29.75 23.5 29.75H25.25V31.5C25.25 31.6989 25.329 31.8897 25.4697 32.0303C25.6103 32.171 25.8011 32.25 26 32.25H34C34.1989 32.25 34.3897 32.171 34.5303 32.0303C34.671 31.8897 34.75 31.6989 34.75 31.5V29.75H36.5C36.6989 29.75 36.8897 29.671 37.0303 29.5303C37.171 29.3897 37.25 29.1989 37.25 29V24C37.25 23.035 36.4275 22.25 35.4169 22.25ZM26.75 21.25H33.25V22.25H26.75V21.25ZM33.25 30.75H26.75V28.75H33.25V30.75ZM35.75 28.25H34.75V28C34.75 27.8011 34.671 27.6103 34.5303 27.4697C34.3897 27.329 34.1989 27.25 34 27.25H26C25.8011 27.25 25.6103 27.329 25.4697 27.4697C25.329 27.6103 25.25 27.8011 25.25 28V28.25H24.25V24C24.25 23.8644 24.4025 23.75 24.5831 23.75H35.4169C35.5975 23.75 35.75 23.8644 35.75 24V28.25ZM34.75 25.5C34.75 25.6978 34.6914 25.8911 34.5815 26.0556C34.4716 26.22 34.3154 26.3482 34.1327 26.4239C33.95 26.4996 33.7489 26.5194 33.5549 26.4808C33.3609 26.4422 33.1827 26.347 33.0429 26.2071C32.903 26.0673 32.8078 25.8891 32.7692 25.6951C32.7306 25.5011 32.7504 25.3 32.8261 25.1173C32.9018 24.9346 33.03 24.7784 33.1944 24.6685C33.3589 24.5586 33.5522 24.5 33.75 24.5C34.0152 24.5 34.2696 24.6054 34.4571 24.7929C34.6446 24.9804 34.75 25.2348 34.75 25.5Z" fill="#404040"/>
</g>
<defs>
<filter id="filter0_bd_137_1530" x="0" y="0" width="60" height="60" filterUnits="userSpaceOnUse" color-interpolation-filters="sRGB">
<feFlood flood-opacity="0" result="BackgroundImageFix"/>
<feGaussianBlur in="BackgroundImageFix" stdDeviation="5"/>
<feComposite in2="SourceAlpha" operator="in" result="effect1_backgroundBlur_137_1530"/>
<feColorMatrix in="SourceAlpha" type="matrix" values="0 0 0 0 0 0 0 0 0 0 0 0 0 0 0 0 0 0 127 0" result="hardAlpha"/>
<feOffset dy="4"/>
<feGaussianBlur stdDeviation="7"/>
<feColorMatrix type="matrix" values="0 0 0 0 0 0 0 0 0 0 0 0 0 0 0 0 0 0 0.12 0"/>
<feBlend mode="normal" in2="effect1_backgroundBlur_137_1530" result="effect2_dropShadow_137_1530"/>
<feBlend mode="normal" in="SourceGraphic" in2="effect2_dropShadow_137_1530" result="shape"/>
</filter>
</defs>
</svg>
