<svg width="1194" height="834" viewBox="0 0 1194 834" fill="none" xmlns="http://www.w3.org/2000/svg">
<g clip-path="url(#clip0_18_4777)">
<rect width="1194" height="834" rx="24" fill="url(#paint0_linear_18_4777)"/>
<path d="M555.046 648.07L600.6 477.32L430.01 522.918L383.961 692.95L555.046 648.07Z" stroke="white" stroke-miterlimit="10" stroke-linecap="round" stroke-linejoin="round"/>
<path d="M680.402 773.961L726.454 603.291L600.654 477.374L554.836 648.279L680.402 773.961Z" stroke="white" stroke-miterlimit="10" stroke-linecap="round" stroke-linejoin="round"/>
<path d="M510.091 819.197L680.402 773.961L554.837 648.28L383.961 692.95L510.091 819.197Z" stroke="white" stroke-miterlimit="10" stroke-linecap="round" stroke-linejoin="round"/>
<path d="M771.739 432.494L817.293 261.745L646.704 307.343L600.654 477.374L771.739 432.494Z" stroke="white" stroke-miterlimit="10" stroke-linecap="round" stroke-linejoin="round"/>
<path d="M897.095 558.386L943.148 387.716L817.347 261.799L771.53 432.704L897.095 558.386Z" stroke="white" stroke-miterlimit="10" stroke-linecap="round" stroke-linejoin="round"/>
<path d="M726.784 603.621L897.095 558.386L771.53 432.704L600.654 477.375L726.784 603.621Z" stroke="white" stroke-miterlimit="10" stroke-linecap="round" stroke-linejoin="round"/>
<path d="M474.692 351.406L520.246 180.656L349.656 226.254L303.607 396.286L474.692 351.406Z" stroke="white" stroke-miterlimit="10" stroke-linecap="round" stroke-linejoin="round"/>
<path d="M600.047 477.298L646.1 306.628L520.299 180.711L474.482 351.616L600.047 477.298Z" stroke="white" stroke-miterlimit="10" stroke-linecap="round" stroke-linejoin="round"/>
<path d="M429.736 522.533L600.047 477.298L474.482 351.616L303.606 396.286L429.736 522.533Z" stroke="white" stroke-miterlimit="10" stroke-linecap="round" stroke-linejoin="round"/>
<path d="M691.692 136.139L737.246 -34.6108L566.656 10.9874L520.607 181.019L691.692 136.139Z" stroke="white" stroke-miterlimit="10" stroke-linecap="round" stroke-linejoin="round"/>
<path d="M817.048 262.03L863.1 91.3603L737.299 -34.5568L691.482 136.348L817.048 262.03Z" stroke="white" stroke-miterlimit="10" stroke-linecap="round" stroke-linejoin="round"/>
<path d="M646.736 307.265L817.048 262.03L691.482 136.348L520.607 181.018L646.736 307.265Z" stroke="white" stroke-miterlimit="10" stroke-linecap="round" stroke-linejoin="round"/>
<path d="M692.531 47.9079L738.085 -122.842L567.495 -77.2436L521.446 92.7878L692.531 47.9079Z" stroke="white" stroke-miterlimit="10" stroke-linecap="round" stroke-linejoin="round"/>
<path d="M817.887 173.799L863.94 3.12961L738.139 -122.788L692.322 48.1173L817.887 173.799Z" stroke="white" stroke-miterlimit="10" stroke-linecap="round" stroke-linejoin="round"/>
<path d="M647.576 219.034L817.887 173.799L692.322 48.1173L521.446 92.7876L647.576 219.034Z" stroke="white" stroke-miterlimit="10" stroke-linecap="round" stroke-linejoin="round"/>
<path d="M1068.55 166.213L1193.3 41.1373L1022.78 -4.74741L897.967 119.458L1068.55 166.213Z" stroke="white" stroke-miterlimit="10" stroke-linecap="round" stroke-linejoin="round"/>
<path d="M1114.22 337.974L1239.36 213.217L1193.32 41.2112L1068.26 166.289L1114.22 337.974Z" stroke="white" stroke-miterlimit="10" stroke-linecap="round" stroke-linejoin="round"/>
<path d="M944.134 291.914L1114.22 337.974L1068.26 166.289L897.967 119.458L944.134 291.914Z" stroke="white" stroke-miterlimit="10" stroke-linecap="round" stroke-linejoin="round"/>
<path d="M205.615 513.428L251.169 342.678L80.5794 388.276L34.5301 558.308L205.615 513.428Z" stroke="white" stroke-miterlimit="10" stroke-linecap="round" stroke-linejoin="round"/>
<path d="M330.971 639.32L377.023 468.65L251.222 342.733L205.405 513.638L330.971 639.32Z" stroke="white" stroke-miterlimit="10" stroke-linecap="round" stroke-linejoin="round"/>
<path d="M160.659 684.555L330.97 639.32L205.405 513.638L34.5291 558.308L160.659 684.555Z" stroke="white" stroke-miterlimit="10" stroke-linecap="round" stroke-linejoin="round"/>
<path d="M212.33 736.946L257.885 566.196L87.2948 611.794L41.2455 781.825L212.33 736.946Z" stroke="white" stroke-miterlimit="10" stroke-linecap="round" stroke-linejoin="round"/>
<path d="M337.686 862.837L383.738 692.167L257.938 566.25L212.121 737.155L337.686 862.837Z" stroke="white" stroke-miterlimit="10" stroke-linecap="round" stroke-linejoin="round"/>
<path d="M167.375 908.072L337.686 862.837L212.12 737.155L41.2447 781.825L167.375 908.072Z" stroke="white" stroke-miterlimit="10" stroke-linecap="round" stroke-linejoin="round"/>
<path d="M930.953 501.665L976.507 330.915L805.917 376.513L759.868 546.545L930.953 501.665Z" stroke="white" stroke-miterlimit="10" stroke-linecap="round" stroke-linejoin="round"/>
<path d="M1056.31 627.556L1102.36 456.886L976.561 330.969L930.744 501.874L1056.31 627.556Z" stroke="white" stroke-miterlimit="10" stroke-linecap="round" stroke-linejoin="round"/>
<path d="M885.998 672.791L1056.31 627.556L930.743 501.874L759.868 546.544L885.998 672.791Z" stroke="white" stroke-miterlimit="10" stroke-linecap="round" stroke-linejoin="round"/>
<path d="M428.587 521.493L474.141 350.744L303.551 396.342L257.502 566.373L428.587 521.493Z" stroke="white" stroke-miterlimit="10" stroke-linecap="round" stroke-linejoin="round"/>
<path d="M553.942 647.385L599.995 476.716L474.194 350.798L428.377 521.703L553.942 647.385Z" stroke="white" stroke-miterlimit="10" stroke-linecap="round" stroke-linejoin="round"/>
<path d="M383.631 692.621L553.943 647.385L428.377 521.704L257.501 566.374L383.631 692.621Z" stroke="white" stroke-miterlimit="10" stroke-linecap="round" stroke-linejoin="round"/>
<circle cx="679.486" cy="771.948" r="5.34262" transform="rotate(-45 679.486 771.948)" fill="white"/>
<circle cx="726.499" cy="602.367" r="5.34262" transform="rotate(-45 726.499 602.367)" fill="white"/>
<circle cx="600.572" cy="476.44" r="5.34262" transform="rotate(-45 600.572 476.44)" fill="white"/>
<circle cx="554.399" cy="646.861" r="5.34262" transform="rotate(-45 554.399 646.861)" fill="white"/>
<circle cx="429.312" cy="521.774" r="5.34262" transform="rotate(-45 429.312 521.774)" fill="white"/>
<circle cx="383.978" cy="693.034" r="5.34262" transform="rotate(-45 383.978 693.034)" fill="white"/>
<circle cx="646.745" cy="307.698" r="5.34262" transform="rotate(-45 646.745 307.698)" fill="white"/>
<circle cx="770.993" cy="431.946" r="5.34262" transform="rotate(-45 770.993 431.946)" fill="white"/>
<circle cx="817.166" cy="261.525" r="5.34262" transform="rotate(-45 817.166 261.525)" fill="white"/>
<circle cx="519.979" cy="180.932" r="5.34262" transform="rotate(-45 519.979 180.932)" fill="white"/>
<circle cx="473.806" cy="351.352" r="5.34262" transform="rotate(-45 473.806 351.352)" fill="white"/>
<circle cx="691.239" cy="135.598" r="5.34262" transform="rotate(-45 691.239 135.598)" fill="white"/>
<circle cx="304.224" cy="395.007" r="5.34262" transform="rotate(-45 304.224 395.007)" fill="white"/>
<circle cx="350.397" cy="226.265" r="5.34262" transform="rotate(-45 350.397 226.265)" fill="white"/>
<circle cx="863.339" cy="91.104" r="5.34262" transform="rotate(-45 863.339 91.104)" fill="white"/>
</g>
<defs>
<linearGradient id="paint0_linear_18_4777" x1="597" y1="0" x2="597" y2="834" gradientUnits="userSpaceOnUse">
<stop stop-color="#DBDEF9"/>
<stop offset="1" stop-color="#A3A2E0"/>
</linearGradient>
<clipPath id="clip0_18_4777">
<rect width="1194" height="834" rx="24" fill="white"/>
</clipPath>
</defs>
</svg>
