<svg width="24" height="24" viewBox="0 0 24 24" fill="none" xmlns="http://www.w3.org/2000/svg">
<path d="M11.4922 15.4619V17H4.68359V15.6875L7.90332 12.2354C8.22689 11.8753 8.4821 11.5586 8.66895 11.2852C8.85579 11.0072 8.99023 10.7588 9.07227 10.54C9.15885 10.3167 9.20215 10.1048 9.20215 9.9043C9.20215 9.60352 9.15202 9.34603 9.05176 9.13184C8.9515 8.91309 8.80339 8.74447 8.60742 8.62598C8.41602 8.50749 8.17904 8.44824 7.89648 8.44824C7.5957 8.44824 7.33594 8.52116 7.11719 8.66699C6.90299 8.81283 6.73893 9.01562 6.625 9.27539C6.51562 9.53516 6.46094 9.8291 6.46094 10.1572H4.48535C4.48535 9.56478 4.62663 9.02246 4.90918 8.53027C5.19173 8.03353 5.59049 7.63932 6.10547 7.34766C6.62044 7.05143 7.23112 6.90332 7.9375 6.90332C8.63477 6.90332 9.22266 7.01725 9.70117 7.24512C10.1842 7.46842 10.5488 7.79199 10.7949 8.21582C11.0456 8.63509 11.1709 9.13639 11.1709 9.71973C11.1709 10.0479 11.1185 10.3691 11.0137 10.6836C10.9089 10.9935 10.7585 11.3034 10.5625 11.6133C10.3711 11.9186 10.1387 12.2285 9.86523 12.543C9.5918 12.8574 9.28874 13.1833 8.95605 13.5205L7.22656 15.4619H11.4922ZM15.9834 17H13.8164L13.8301 15.4004H15.9834C16.5212 15.4004 16.9746 15.2796 17.3438 15.0381C17.7129 14.792 17.9909 14.4342 18.1777 13.9648C18.3691 13.4954 18.4648 12.9281 18.4648 12.2627V11.7773C18.4648 11.2669 18.4102 10.818 18.3008 10.4307C18.196 10.0433 18.0387 9.71745 17.8291 9.45312C17.6195 9.1888 17.362 8.99056 17.0566 8.8584C16.7513 8.72168 16.4004 8.65332 16.0039 8.65332H13.7754V7.04688H16.0039C16.6693 7.04688 17.2777 7.16081 17.8291 7.38867C18.3851 7.61198 18.8659 7.93327 19.2715 8.35254C19.6771 8.77181 19.9893 9.27311 20.208 9.85645C20.4313 10.4352 20.543 11.0801 20.543 11.791V12.2627C20.543 12.9691 20.4313 13.6139 20.208 14.1973C19.9893 14.7806 19.6771 15.2819 19.2715 15.7012C18.8704 16.1159 18.3896 16.4372 17.8291 16.665C17.2731 16.8883 16.6579 17 15.9834 17ZM14.9785 7.04688V17H12.9277V7.04688H14.9785Z" fill="currentColor"/>
</svg>
