<svg width="24" height="24" viewBox="0 0 24 24" fill="none" xmlns="http://www.w3.org/2000/svg">
<path d="M6.7002 11.1689H7.75293C8.09017 11.1689 8.36816 11.112 8.58691 10.998C8.80566 10.8796 8.96745 10.7155 9.07227 10.5059C9.18164 10.2917 9.23633 10.0433 9.23633 9.76074C9.23633 9.50553 9.1862 9.27995 9.08594 9.08398C8.99023 8.88346 8.84212 8.72852 8.6416 8.61914C8.44108 8.50521 8.18815 8.44824 7.88281 8.44824C7.64128 8.44824 7.41797 8.49609 7.21289 8.5918C7.00781 8.6875 6.84375 8.82194 6.7207 8.99512C6.59766 9.16829 6.53613 9.37793 6.53613 9.62402H4.56055C4.56055 9.07715 4.70638 8.60091 4.99805 8.19531C5.29427 7.78971 5.69076 7.47298 6.1875 7.24512C6.68424 7.01725 7.23112 6.90332 7.82812 6.90332C8.5026 6.90332 9.09277 7.0127 9.59863 7.23145C10.1045 7.44564 10.4987 7.76237 10.7812 8.18164C11.0638 8.60091 11.2051 9.12044 11.2051 9.74023C11.2051 10.0547 11.1322 10.36 10.9863 10.6562C10.8405 10.9479 10.6309 11.2122 10.3574 11.4492C10.0885 11.6816 9.76042 11.8685 9.37305 12.0098C8.98568 12.1465 8.55046 12.2148 8.06738 12.2148H6.7002V11.1689ZM6.7002 12.666V11.6475H8.06738C8.6097 11.6475 9.08594 11.709 9.49609 11.832C9.90625 11.9551 10.2503 12.1328 10.5283 12.3652C10.8063 12.5931 11.016 12.8643 11.1572 13.1787C11.2985 13.4886 11.3691 13.8327 11.3691 14.2109C11.3691 14.6758 11.2803 15.0905 11.1025 15.4551C10.9248 15.8151 10.6742 16.1204 10.3506 16.3711C10.0316 16.6217 9.65788 16.8132 9.22949 16.9453C8.80111 17.0729 8.33398 17.1367 7.82812 17.1367C7.40885 17.1367 6.99642 17.0798 6.59082 16.9658C6.18978 16.8473 5.8252 16.6719 5.49707 16.4395C5.1735 16.2025 4.91374 15.9062 4.71777 15.5508C4.52637 15.1908 4.43066 14.7646 4.43066 14.2725H6.40625C6.40625 14.5277 6.47005 14.7555 6.59766 14.9561C6.72526 15.1566 6.90072 15.3138 7.12402 15.4277C7.35189 15.5417 7.60482 15.5986 7.88281 15.5986C8.19727 15.5986 8.46615 15.5417 8.68945 15.4277C8.91732 15.3092 9.09049 15.1452 9.20898 14.9355C9.33203 14.7214 9.39355 14.473 9.39355 14.1904C9.39355 13.8258 9.32747 13.5342 9.19531 13.3154C9.06315 13.0921 8.87402 12.9281 8.62793 12.8232C8.38184 12.7184 8.09017 12.666 7.75293 12.666H6.7002ZM15.9834 17H13.8164L13.8301 15.4004H15.9834C16.5212 15.4004 16.9746 15.2796 17.3438 15.0381C17.7129 14.792 17.9909 14.4342 18.1777 13.9648C18.3691 13.4954 18.4648 12.9281 18.4648 12.2627V11.7773C18.4648 11.2669 18.4102 10.818 18.3008 10.4307C18.196 10.0433 18.0387 9.71745 17.8291 9.45312C17.6195 9.1888 17.362 8.99056 17.0566 8.8584C16.7513 8.72168 16.4004 8.65332 16.0039 8.65332H13.7754V7.04688H16.0039C16.6693 7.04688 17.2777 7.16081 17.8291 7.38867C18.3851 7.61198 18.8659 7.93327 19.2715 8.35254C19.6771 8.77181 19.9893 9.27311 20.208 9.85645C20.4313 10.4352 20.543 11.0801 20.543 11.791V12.2627C20.543 12.9691 20.4313 13.6139 20.208 14.1973C19.9893 14.7806 19.6771 15.2819 19.2715 15.7012C18.8704 16.1159 18.3896 16.4372 17.8291 16.665C17.2731 16.8883 16.6579 17 15.9834 17ZM14.9785 7.04688V17H12.9277V7.04688H14.9785Z" fill="currentColor"/>
</svg>
