<svg width="24" height="24" viewBox="0 0 24 24" fill="none" xmlns="http://www.w3.org/2000/svg">
<g clip-path="url(#clip0_397_4397)">
<path d="M12 5.39991L11 5.3999L5 5.39991L4 5.3999C2.9 5.3999 2 6.2999 2 7.3999L2 17.1999C2 18.2999 2.9 19.1999 4 19.1999L12 19.1999H14H19C20.6569 19.1999 22 17.8568 22 16.1999V8.39991C22 6.74306 20.6569 5.39991 19 5.39991H12ZM20 17.1999H12H4V7.39991H5V10.5999C5 11.1522 5.44772 11.5999 6 11.5999H6.1999C6.75219 11.5999 7.1999 11.1522 7.1999 10.5999V7.39991H12H20V17.1999ZM9 7.39991H11V9.39991C11 9.95219 10.5523 10.3999 10 10.3999C9.44772 10.3999 9 9.95219 9 9.39991V7.39991ZM13 7.39991H15V10.5999C15 11.1522 14.5523 11.5999 14 11.5999C13.4477 11.5999 13 11.1522 13 10.5999V7.39991ZM17 7.39991H19V9.39991C19 9.95219 18.5523 10.3999 18 10.3999C17.4477 10.3999 17 9.95219 17 9.39991V7.39991Z" fill="currentColor"/>
</g>
<defs>
<clipPath id="clip0_397_4397">
<rect width="24" height="24" fill="currentColor"/>
</clipPath>
</defs>
</svg>
