<svg width="18" height="18" viewBox="0 0 18 18" fill="none" xmlns="http://www.w3.org/2000/svg">
    <path d="M17.5395 4.87336C17.4006 4.80275 17.245 4.77195 17.0897 4.78436C16.9345 4.79677 16.7857 4.85191 16.6598 4.94367L14.9062 6.21773V5.0625C14.9062 4.68954 14.7581 4.33185 14.4944 4.06813C14.2306 3.80441 13.873 3.65625 13.5 3.65625H2.25C1.87704 3.65625 1.51935 3.80441 1.25563 4.06813C0.991908 4.33185 0.84375 4.68954 0.84375 5.0625V12.9375C0.84375 13.3105 0.991908 13.6681 1.25563 13.9319C1.51935 14.1956 1.87704 14.3438 2.25 14.3438H13.5C13.873 14.3438 14.2306 14.1956 14.4944 13.9319C14.7581 13.6681 14.9062 13.3105 14.9062 12.9375V11.7823L16.6598 13.0577C16.7857 13.1493 16.9345 13.2043 17.0897 13.2166C17.2449 13.2289 17.4005 13.1979 17.5393 13.1273C17.678 13.0566 17.7945 12.9489 17.8758 12.8161C17.9571 12.6834 18.0001 12.5307 18 12.375V5.625C18 5.46943 17.957 5.3169 17.8757 5.18425C17.7944 5.05161 17.678 4.94401 17.5395 4.87336ZM13.2188 12.6562H2.53125V5.34375H13.2188V12.6562ZM16.3125 10.7177L14.9062 9.69539V8.30461L16.3125 7.28227V10.7177Z" fill="#5C5C5C"/>
</svg>
