<svg width="16" height="16" viewBox="0 0 16 16" fill="none" xmlns="http://www.w3.org/2000/svg">
    <path d="M4.25 5.49992V2.49992C4.25 2.301 4.32902 2.11024 4.46967 1.96959C4.61032 1.82893 4.80109 1.74992 5 1.74992C5.19891 1.74992 5.38968 1.82893 5.53033 1.96959C5.67098 2.11024 5.75 2.301 5.75 2.49992V5.49992C5.75 5.69883 5.67098 5.88959 5.53033 6.03025C5.38968 6.1709 5.19891 6.24992 5 6.24992C4.80109 6.24992 4.61032 6.1709 4.46967 6.03025C4.32902 5.88959 4.25 5.69883 4.25 5.49992ZM13.75 2.49992V13.9999C13.75 14.1988 13.671 14.3896 13.5303 14.5302C13.3897 14.6709 13.1989 14.7499 13 14.7499C12.8011 14.7499 12.6103 14.6709 12.4697 14.5302C12.329 14.3896 12.25 14.1988 12.25 13.9999V11.2499H9.5C9.30109 11.2499 9.11032 11.1709 8.96967 11.0302C8.82902 10.8896 8.75 10.6988 8.75 10.4999C8.77343 9.28244 8.92701 8.07097 9.20813 6.88617C9.83875 4.27617 11.0475 2.52054 12.7044 1.81242C12.8183 1.76355 12.9426 1.74369 13.0661 1.75461C13.1896 1.76554 13.3084 1.80691 13.412 1.87502C13.5156 1.94313 13.6007 2.03586 13.6597 2.14491C13.7187 2.25397 13.7497 2.37594 13.75 2.49992ZM12.25 3.93242C11.4125 4.81242 10.9375 6.12492 10.6731 7.21117C10.4753 8.04555 10.3453 8.89457 10.2844 9.74992H12.25V3.93242ZM8 2.43742C7.98342 2.2385 7.88851 2.05432 7.73614 1.92539C7.58376 1.79646 7.38641 1.73334 7.1875 1.74992C6.98859 1.76649 6.80441 1.86141 6.67548 2.01378C6.54654 2.16615 6.48342 2.3635 6.5 2.56242L6.75 5.52867C6.75 5.99279 6.56563 6.43791 6.23744 6.7661C5.90925 7.09429 5.46413 7.27867 5 7.27867C4.53587 7.27867 4.09075 7.09429 3.76256 6.7661C3.43437 6.43791 3.25 5.99279 3.25 5.52867L3.5 2.56242C3.50821 2.46392 3.49694 2.36478 3.46683 2.27065C3.43672 2.17651 3.38836 2.08923 3.32452 2.01378C3.26068 1.93833 3.18261 1.8762 3.09475 1.83092C3.0069 1.78565 2.91099 1.75812 2.8125 1.74992C2.71401 1.74171 2.61486 1.75298 2.52073 1.78309C2.42659 1.8132 2.33931 1.86155 2.26386 1.92539C2.18842 1.98923 2.12628 2.06731 2.08101 2.15516C2.03573 2.24301 2.00821 2.33892 2 2.43742L1.75 5.43742C1.75 5.45867 1.75 5.47929 1.75 5.49992C1.7512 6.2311 1.99846 6.94061 2.45196 7.51417C2.90546 8.08774 3.5388 8.49198 4.25 8.66179V13.9999C4.25 14.1988 4.32902 14.3896 4.46967 14.5302C4.61032 14.6709 4.80109 14.7499 5 14.7499C5.19891 14.7499 5.38968 14.6709 5.53033 14.5302C5.67098 14.3896 5.75 14.1988 5.75 13.9999V8.66179C6.4612 8.49198 7.09454 8.08774 7.54804 7.51417C8.00154 6.94061 8.2488 6.2311 8.25 5.49992C8.25 5.47929 8.25 5.45867 8.25 5.43742L8 2.43742Z" fill="#404040"/>
</svg>
