<svg width="16" height="16" viewBox="0 0 16 16" fill="none" xmlns="http://www.w3.org/2000/svg">
    <path d="M14.75 4.5V3C14.75 2.66848 14.6183 2.35054 14.3839 2.11612C14.1495 1.8817 13.8315 1.75 13.5 1.75H2.5C2.16848 1.75 1.85054 1.8817 1.61612 2.11612C1.3817 2.35054 1.25 2.66848 1.25 3V4.5C1.24994 4.78816 1.34945 5.0675 1.53167 5.29073C1.7139 5.51395 1.96766 5.66737 2.25 5.725V10.25H2C1.80109 10.25 1.61032 10.329 1.46967 10.4697C1.32902 10.6103 1.25 10.8011 1.25 11C1.25 11.1989 1.32902 11.3897 1.46967 11.5303C1.61032 11.671 1.80109 11.75 2 11.75H7.25V13.2013C6.96404 13.3664 6.74054 13.6212 6.61418 13.9263C6.48782 14.2313 6.46565 14.5696 6.55111 14.8885C6.63657 15.2075 6.82489 15.4893 7.08686 15.6903C7.34882 15.8913 7.6698 16.0003 8 16.0003C8.3302 16.0003 8.65118 15.8913 8.91314 15.6903C9.17511 15.4893 9.36343 15.2075 9.44889 14.8885C9.53435 14.5696 9.51218 14.2313 9.38582 13.9263C9.25946 13.6212 9.03596 13.3664 8.75 13.2013V11.75H14C14.1989 11.75 14.3897 11.671 14.5303 11.5303C14.671 11.3897 14.75 11.1989 14.75 11C14.75 10.8011 14.671 10.6103 14.5303 10.4697C14.3897 10.329 14.1989 10.25 14 10.25H13.75V5.725C14.0323 5.66737 14.2861 5.51395 14.4683 5.29073C14.6506 5.0675 14.7501 4.78816 14.75 4.5ZM2.75 3.25H13.25V4.25H2.75V3.25ZM3.75 10.25V5.75H12.25V10.25H3.75Z" fill="#404040"/>
</svg>
