<svg width="16" height="16" viewBox="0 0 16 16" fill="none" xmlns="http://www.w3.org/2000/svg">
    <path d="M13.5 4.75H11.75V3C11.75 2.66848 11.6183 2.35054 11.3839 2.11612C11.1495 1.8817 10.8315 1.75 10.5 1.75H2.5C2.16848 1.75 1.85054 1.8817 1.61612 2.11612C1.3817 2.35054 1.25 2.66848 1.25 3V11C1.25006 11.1415 1.29018 11.2802 1.36571 11.3999C1.44124 11.5196 1.54911 11.6155 1.67684 11.6765C1.80457 11.7375 1.94695 11.7611 2.08753 11.7445C2.2281 11.728 2.36114 11.6721 2.47125 11.5831L4.25 10.1456V11.5C4.25 11.8315 4.3817 12.1495 4.61612 12.3839C4.85054 12.6183 5.16848 12.75 5.5 12.75H11.2606L13.5288 14.5831C13.6389 14.6721 13.7719 14.728 13.9125 14.7445C14.0531 14.7611 14.1954 14.7375 14.3232 14.6765C14.4509 14.6155 14.5588 14.5196 14.6343 14.3999C14.7098 14.2802 14.7499 14.1415 14.75 14V6C14.75 5.66848 14.6183 5.35054 14.3839 5.11612C14.1495 4.8817 13.8315 4.75 13.5 4.75ZM2.75 9.42937V3.25H10.25V8.25H4.47375C4.30135 8.24952 4.13404 8.30845 4 8.41687L2.75 9.42937ZM13.25 12.4294L12 11.4169C11.8666 11.309 11.7003 11.2501 11.5288 11.25H5.75V9.75H10.5C10.8315 9.75 11.1495 9.6183 11.3839 9.38388C11.6183 9.14946 11.75 8.83152 11.75 8.5V6.25H13.25V12.4294Z" fill="#404040"/>
</svg>
