<svg width="16" height="16" viewBox="0 0 16 16" fill="none" xmlns="http://www.w3.org/2000/svg">
    <path d="M13.4169 4.25H12.75V2.5C12.75 2.30109 12.671 2.11032 12.5303 1.96967C12.3897 1.82902 12.1989 1.75 12 1.75H4C3.80109 1.75 3.61032 1.82902 3.46967 1.96967C3.32902 2.11032 3.25 2.30109 3.25 2.5V4.25H2.58313C1.5725 4.25 0.75 5.035 0.75 6V11C0.75 11.1989 0.829018 11.3897 0.96967 11.5303C1.11032 11.671 1.30109 11.75 1.5 11.75H3.25V13.5C3.25 13.6989 3.32902 13.8897 3.46967 14.0303C3.61032 14.171 3.80109 14.25 4 14.25H12C12.1989 14.25 12.3897 14.171 12.5303 14.0303C12.671 13.8897 12.75 13.6989 12.75 13.5V11.75H14.5C14.6989 11.75 14.8897 11.671 15.0303 11.5303C15.171 11.3897 15.25 11.1989 15.25 11V6C15.25 5.035 14.4275 4.25 13.4169 4.25ZM4.75 3.25H11.25V4.25H4.75V3.25ZM11.25 12.75H4.75V10.75H11.25V12.75ZM13.75 10.25H12.75V10C12.75 9.80109 12.671 9.61032 12.5303 9.46967C12.3897 9.32902 12.1989 9.25 12 9.25H4C3.80109 9.25 3.61032 9.32902 3.46967 9.46967C3.32902 9.61032 3.25 9.80109 3.25 10V10.25H2.25V6C2.25 5.86438 2.4025 5.75 2.58313 5.75H13.4169C13.5975 5.75 13.75 5.86438 13.75 6V10.25ZM12.75 7.5C12.75 7.69778 12.6914 7.89112 12.5815 8.05557C12.4716 8.22002 12.3154 8.34819 12.1327 8.42388C11.95 8.49957 11.7489 8.51937 11.5549 8.48079C11.3609 8.4422 11.1827 8.34696 11.0429 8.20711C10.903 8.06725 10.8078 7.88907 10.7692 7.69509C10.7306 7.50111 10.7504 7.30004 10.8261 7.11732C10.9018 6.93459 11.03 6.77841 11.1944 6.66853C11.3589 6.55865 11.5522 6.5 11.75 6.5C12.0152 6.5 12.2696 6.60536 12.4571 6.79289C12.6446 6.98043 12.75 7.23478 12.75 7.5Z" fill="#404040"/>
</svg>
