<svg width="16" height="16" viewBox="0 0 16 16" fill="none" xmlns="http://www.w3.org/2000/svg">
    <path d="M4.25 14.75C4.25 14.9478 4.19135 15.1411 4.08147 15.3056C3.97159 15.47 3.81541 15.5982 3.63268 15.6739C3.44996 15.7496 3.24889 15.7694 3.05491 15.7308C2.86093 15.6922 2.68275 15.597 2.54289 15.4571C2.40304 15.3173 2.3078 15.1391 2.26922 14.9451C2.23063 14.7511 2.25043 14.55 2.32612 14.3673C2.40181 14.1846 2.52998 14.0284 2.69443 13.9185C2.85888 13.8087 3.05222 13.75 3.25 13.75C3.51522 13.75 3.76957 13.8554 3.95711 14.0429C4.14464 14.2304 4.25 14.4848 4.25 14.75ZM5.25 11.75C5.05222 11.75 4.85888 11.8087 4.69443 11.9185C4.52998 12.0284 4.40181 12.1846 4.32612 12.3673C4.25043 12.55 4.23063 12.7511 4.26922 12.9451C4.3078 13.1391 4.40304 13.3173 4.54289 13.4571C4.68275 13.597 4.86093 13.6922 5.05491 13.7308C5.24889 13.7694 5.44996 13.7496 5.63268 13.6739C5.81541 13.5982 5.97159 13.47 6.08147 13.3056C6.19135 13.1411 6.25 12.9478 6.25 12.75C6.25 12.4848 6.14464 12.2304 5.95711 12.0429C5.76957 11.8554 5.51522 11.75 5.25 11.75ZM1.25 11.75C1.05222 11.75 0.858879 11.8087 0.69443 11.9185C0.529981 12.0284 0.401809 12.1846 0.326121 12.3673C0.250433 12.55 0.23063 12.7511 0.269215 12.9451C0.3078 13.1391 0.403041 13.3173 0.542894 13.4571C0.682746 13.597 0.860929 13.6922 1.05491 13.7308C1.24889 13.7694 1.44996 13.7496 1.63268 13.6739C1.81541 13.5982 1.97159 13.47 2.08147 13.3056C2.19135 13.1411 2.25 12.9478 2.25 12.75C2.25 12.4848 2.14464 12.2304 1.95711 12.0429C1.76957 11.8554 1.51522 11.75 1.25 11.75ZM3.25 11.75C3.44778 11.75 3.64112 11.6914 3.80557 11.5815C3.97002 11.4716 4.09819 11.3154 4.17388 11.1327C4.24957 10.95 4.26937 10.7489 4.23079 10.5549C4.1922 10.3609 4.09696 10.1828 3.95711 10.0429C3.81725 9.90305 3.63907 9.80781 3.44509 9.76922C3.25111 9.73063 3.05004 9.75044 2.86732 9.82613C2.68459 9.90181 2.52841 10.03 2.41853 10.1944C2.30865 10.3589 2.25 10.5522 2.25 10.75C2.25 11.0152 2.35536 11.2696 2.54289 11.4571C2.73043 11.6446 2.98478 11.75 3.25 11.75ZM16 2.5C16 2.69892 15.921 2.88968 15.7803 3.03033C15.6397 3.17099 15.4489 3.25 15.25 3.25H13.8125L12.1994 4.86188L10.8588 12.7081C10.8204 12.9343 10.7206 13.1455 10.5702 13.3187C10.4198 13.4919 10.2247 13.6204 10.0062 13.6901C9.78766 13.7598 9.55417 13.768 9.33128 13.7139C9.10839 13.6597 8.9047 13.5453 8.7425 13.3831L2.6175 7.25813C2.45493 7.09581 2.34025 6.89182 2.28603 6.66858C2.23181 6.44534 2.24017 6.21147 2.31018 5.99267C2.38018 5.77386 2.50914 5.57858 2.68287 5.42827C2.8566 5.27796 3.0684 5.17844 3.295 5.14063L11.1388 3.80063L12.8231 2.11625C12.9389 1.99978 13.0766 1.90744 13.2283 1.84457C13.38 1.7817 13.5427 1.74956 13.7069 1.75H15.25C15.4489 1.75 15.6397 1.82902 15.7803 1.96967C15.921 2.11033 16 2.30109 16 2.5ZM10.5825 5.4175L4.02 6.53875L9.46187 11.9806L10.5825 5.4175Z" fill="#404040"/>
</svg>
