<svg width="16" height="16" viewBox="0 0 16 16" fill="none" xmlns="http://www.w3.org/2000/svg">
    <path d="M8 4.25C8 4.44891 7.92098 4.63968 7.78033 4.78033C7.63968 4.92098 7.44891 5 7.25 5H6.25C6.05109 5 5.86032 4.92098 5.71967 4.78033C5.57902 4.63968 5.5 4.44891 5.5 4.25C5.5 4.05109 5.57902 3.86032 5.71967 3.71967C5.86032 3.57902 6.05109 3.5 6.25 3.5H7.25C7.44891 3.5 7.63968 3.57902 7.78033 3.71967C7.92098 3.86032 8 4.05109 8 4.25ZM11.0094 12.2262L11.2375 13.8231C11.2628 14.0004 11.2498 14.1811 11.1992 14.3529C11.1487 14.5247 11.0618 14.6837 10.9444 14.819C10.8271 14.9543 10.682 15.0628 10.5191 15.1372C10.3561 15.2115 10.1791 15.25 10 15.25H6C5.8209 15.25 5.64388 15.2115 5.48094 15.1372C5.318 15.0628 5.17295 14.9543 5.0556 14.819C4.93825 14.6837 4.85135 14.5247 4.80078 14.3529C4.75021 14.1811 4.73716 14.0004 4.7625 13.8231L4.99062 12.2262C4.00992 11.6869 3.19191 10.8942 2.62191 9.931C2.05191 8.96777 1.7508 7.86924 1.75 6.75C1.75 6.55109 1.82902 6.36032 1.96967 6.21967C2.11032 6.07902 2.30109 6 2.5 6H3.25V2.5C3.25 2.16848 3.3817 1.85054 3.61612 1.61612C3.85054 1.3817 4.16848 1.25 4.5 1.25H11.5C11.8315 1.25 12.1495 1.3817 12.3839 1.61612C12.6183 1.85054 12.75 2.16848 12.75 2.5V6H13.5C13.6989 6 13.8897 6.07902 14.0303 6.21967C14.171 6.36032 14.25 6.55109 14.25 6.75C14.2492 7.86924 13.9481 8.96777 13.3781 9.931C12.8081 10.8942 11.9901 11.6869 11.0094 12.2262ZM4.75 6H11.25V2.75H4.75V6ZM9.57563 12.7987C8.54234 13.0671 7.45766 13.0671 6.42438 12.7987L6.28813 13.75H9.71187L9.57563 12.7987ZM12.6906 7.5H3.3125C3.49061 8.61588 4.06071 9.63172 4.92041 10.3651C5.78012 11.0985 6.87312 11.5013 8.00313 11.5013C9.13314 11.5013 10.2261 11.0985 11.0858 10.3651C11.9455 9.63172 12.5156 8.61588 12.6938 7.5H12.6906Z" fill="#404040"/>
</svg>
