<svg width="16" height="16" viewBox="0 0 16 16" fill="none" xmlns="http://www.w3.org/2000/svg">
    <path d="M15.25 10.5001L9.25 6.00008L10.45 5.10008C10.5431 5.03022 10.6187 4.93963 10.6708 4.83549C10.7229 4.73135 10.75 4.61651 10.75 4.50008C10.7503 3.80021 10.4838 3.12655 10.0047 2.61635C9.52566 2.10615 8.87008 1.79781 8.17158 1.75414C7.47308 1.71047 6.7842 1.93477 6.24532 2.38133C5.70643 2.82789 5.35809 3.46312 5.27125 4.15758C5.25894 4.25533 5.266 4.35455 5.29204 4.44957C5.31807 4.5446 5.36257 4.63356 5.42298 4.71139C5.4834 4.78922 5.55855 4.85438 5.64415 4.90316C5.72975 4.95195 5.82412 4.98339 5.92188 4.9957C6.01963 5.00801 6.11885 5.00095 6.21387 4.97492C6.30889 4.94888 6.39786 4.90439 6.47569 4.84397C6.55351 4.78355 6.61868 4.7084 6.66746 4.6228C6.71624 4.5372 6.74769 4.44283 6.76 4.34508C6.79621 4.05905 6.93017 3.79433 7.1392 3.59577C7.34824 3.3972 7.61948 3.277 7.90699 3.25552C8.1945 3.23405 8.48059 3.31262 8.7168 3.47792C8.95302 3.64323 9.12483 3.8851 9.20312 4.16258L7.5625 5.39008C7.55312 5.39633 7.54437 5.4032 7.53562 5.41008L0.75 10.5001C0.540118 10.6575 0.385083 10.8769 0.306858 11.1274C0.228633 11.3778 0.231183 11.6465 0.314146 11.8954C0.397109 12.1443 0.55628 12.3607 0.769112 12.5141C0.981944 12.6675 1.23765 12.7501 1.5 12.7501H14.5C14.7624 12.7501 15.0181 12.6675 15.2309 12.5141C15.4437 12.3607 15.6029 12.1443 15.6859 11.8954C15.7688 11.6465 15.7714 11.3778 15.6931 11.1274C15.6149 10.8769 15.4599 10.6575 15.25 10.5001ZM2.25 11.2501L8 6.93758L13.75 11.2501H2.25Z" fill="#404040"/>
</svg>
